Teranoptia-Furiae.ufo
<glyph name="parenright" format="2">
  <advance width="1000"/>
  <unicode hex="0029"/>
  <outline>
    <contour>
      <point x="-10" y="158" type="line"/>
      <point x="510" y="158" type="line"/>
      <point x="510" y="442" type="line"/>
      <point x="-10" y="442" type="line"/>
    </contour>
    <contour>
      <point x="465" y="27" type="curve" smooth="yes"/>
      <point x="546" y="27"/>
      <point x="598" y="134"/>
      <point x="598" y="300" type="curve" smooth="yes"/>
      <point x="598" y="465"/>
      <point x="546" y="572"/>
      <point x="465" y="572" type="curve" smooth="yes"/>
      <point x="384" y="572"/>
      <point x="332" y="465"/>
      <point x="332" y="300" type="curve" smooth="yes"/>
      <point x="332" y="134"/>
      <point x="384" y="27"/>
    </contour>
    <contour>
      <point x="478" y="-82" type="curve" smooth="yes"/>
      <point x="365" y="-82"/>
      <point x="292" y="67"/>
      <point x="292" y="299" type="curve" smooth="yes"/>
      <point x="291" y="531"/>
      <point x="364" y="681"/>
      <point x="478" y="681" type="curve" smooth="yes"/>
      <point x="591" y="681"/>
      <point x="664" y="531"/>
      <point x="665" y="299" type="curve" smooth="yes"/>
      <point x="664" y="67"/>
      <point x="591" y="-82"/>
    </contour>
    <contour>
      <point x="506" y="-159" type="curve" smooth="yes"/>
      <point x="687" y="-159"/>
      <point x="804" y="21"/>
      <point x="804" y="300" type="curve" smooth="yes"/>
      <point x="804" y="578"/>
      <point x="687" y="758"/>
      <point x="506" y="758" type="curve" smooth="yes"/>
      <point x="326" y="758"/>
      <point x="208" y="578"/>
      <point x="209" y="300" type="curve" smooth="yes"/>
      <point x="208" y="21"/>
      <point x="325" y="-159"/>
    </contour>
  </outline>
</glyph>
<glyph name="A" format="2">
  <advance width="1000"/>
  <unicode hex="0041"/>
  <outline>
    <contour>
      <point x="101" y="-162" type="curve" smooth="yes"/>
      <point x="162" y="-162"/>
      <point x="231" y="-107"/>
      <point x="275" y="-88" type="curve" smooth="yes"/>
      <point x="328" y="-65"/>
      <point x="379" y="-78"/>
      <point x="449" y="-40" type="curve" smooth="yes"/>
      <point x="519" y="-2"/>
      <point x="537" y="49"/>
      <point x="576" y="80" type="curve" smooth="yes"/>
      <point x="615" y="111"/>
      <point x="635" y="92"/>
      <point x="681" y="125" type="curve" smooth="yes"/>
      <point x="727" y="158"/>
      <point x="742" y="189"/>
      <point x="792" y="189" type="curve" smooth="yes"/>
      <point x="858" y="189"/>
      <point x="893" y="158"/>
      <point x="990" y="158" type="curve" smooth="yes"/>
      <point x="1010" y="158" type="line"/>
      <point x="1010" y="442" type="line"/>
      <point x="990" y="442" type="line" smooth="yes"/>
      <point x="875" y="442"/>
      <point x="844" y="432"/>
      <point x="805" y="432" type="curve" smooth="yes"/>
      <point x="737" y="432"/>
      <point x="689" y="473"/>
      <point x="639" y="473" type="curve" smooth="yes"/>
      <point x="607" y="473"/>
      <point x="592" y="456"/>
      <point x="592" y="445" type="curve" smooth="yes"/>
      <point x="592" y="436"/>
      <point x="602" y="429"/>
      <point x="615" y="429" type="curve" smooth="yes"/>
      <point x="632" y="429"/>
      <point x="645" y="425"/>
      <point x="645" y="407" type="curve" smooth="yes"/>
      <point x="645" y="378"/>
      <point x="623" y="346"/>
      <point x="572" y="346" type="curve" smooth="yes"/>
      <point x="446" y="346"/>
      <point x="281" y="477"/>
      <point x="164" y="477" type="curve" smooth="yes"/>
      <point x="94" y="477"/>
      <point x="53" y="460"/>
      <point x="53" y="444" type="curve" smooth="yes"/>
      <point x="53" y="432"/>
      <point x="75" y="421"/>
      <point x="123" y="418" type="curve" smooth="yes"/>
      <point x="177" y="414"/>
      <point x="196" y="357"/>
      <point x="229" y="287" type="curve" smooth="yes"/>
      <point x="262" y="217"/>
      <point x="293" y="215"/>
      <point x="345" y="215" type="curve" smooth="yes"/>
      <point x="367" y="215"/>
      <point x="379" y="209"/>
      <point x="379" y="200" type="curve" smooth="yes"/>
      <point x="379" y="189"/>
      <point x="360" y="174"/>
      <point x="318" y="161" type="curve" smooth="yes"/>
      <point x="262" y="143"/>
      <point x="221" y="13"/>
      <point x="186" y="-42" type="curve" smooth="yes"/>
      <point x="151" y="-97"/>
      <point x="117" y="-118"/>
      <point x="95" y="-118" type="curve" smooth="yes"/>
      <point x="78" y="-118"/>
      <point x="69" y="-128"/>
      <point x="69" y="-139" type="curve" smooth="yes"/>
      <point x="69" y="-150"/>
      <point x="79" y="-162"/>
    </contour>
  </outline>
</glyph>
<glyph name="B" format="2">
  <advance width="1000"/>
  <unicode hex="0042"/>
  <outline>
    <contour>
      <point x="52" y="-133" type="curve" smooth="yes"/>
      <point x="66" y="-133"/>
      <point x="205" y="-94"/>
      <point x="258" y="-57" type="curve" smooth="yes"/>
      <point x="311" y="-20"/>
      <point x="327" y="86"/>
      <point x="327" y="97" type="curve" smooth="yes"/>
      <point x="327" y="108"/>
      <point x="317" y="113"/>
      <point x="317" y="121" type="curve" smooth="yes"/>
      <point x="317" y="129"/>
      <point x="321" y="139"/>
      <point x="342" y="139" type="curve" smooth="yes"/>
      <point x="387" y="139"/>
      <point x="439" y="118"/>
      <point x="464" y="99" type="curve" smooth="yes"/>
      <point x="489" y="80"/>
      <point x="525" y="44"/>
      <point x="562" y="44" type="curve" smooth="yes"/>
      <point x="599" y="44"/>
      <point x="619" y="55"/>
      <point x="677" y="55" type="curve" smooth="yes"/>
      <point x="740" y="55"/>
      <point x="791" y="-2"/>
      <point x="859" y="-2" type="curve" smooth="yes"/>
      <point x="926" y="-2"/>
      <point x="978" y="55"/>
      <point x="978" y="128" type="curve" smooth="yes"/>
      <point x="978" y="240"/>
      <point x="791" y="449"/>
      <point x="657" y="449" type="curve" smooth="yes"/>
      <point x="567" y="449"/>
      <point x="524" y="443"/>
      <point x="478" y="443" type="curve" smooth="yes"/>
      <point x="432" y="443"/>
      <point x="381" y="468"/>
      <point x="346" y="507" type="curve" smooth="yes"/>
      <point x="311" y="546"/>
      <point x="248" y="661"/>
      <point x="122" y="661" type="curve" smooth="yes"/>
      <point x="103" y="661"/>
      <point x="99" y="652"/>
      <point x="99" y="643" type="curve" smooth="yes"/>
      <point x="99" y="634"/>
      <point x="107" y="620"/>
      <point x="127" y="615" type="curve" smooth="yes"/>
      <point x="147" y="610"/>
      <point x="170" y="594"/>
      <point x="170" y="547" type="curve" smooth="yes"/>
      <point x="170" y="488"/>
      <point x="100" y="442"/>
      <point x="10" y="442" type="curve" smooth="yes"/>
      <point x="-10" y="442" type="line"/>
      <point x="-10" y="158" type="line"/>
      <point x="10" y="158" type="line" smooth="yes"/>
      <point x="43" y="158"/>
      <point x="63" y="166"/>
      <point x="87" y="182" type="curve" smooth="yes"/>
      <point x="94" y="187"/>
      <point x="99" y="191"/>
      <point x="101" y="191" type="curve" smooth="yes"/>
      <point x="105" y="191"/>
      <point x="108" y="188"/>
      <point x="108" y="184" type="curve" smooth="yes"/>
      <point x="108" y="177"/>
      <point x="96" y="171"/>
      <point x="96" y="155" type="curve" smooth="yes"/>
      <point x="96" y="124"/>
      <point x="121" y="96"/>
      <point x="121" y="46" type="curve" smooth="yes"/>
      <point x="121" y="-29"/>
      <point x="69" y="-84"/>
      <point x="58" y="-87" type="curve" smooth="yes"/>
      <point x="47" y="-90"/>
      <point x="31" y="-99"/>
      <point x="31" y="-113" type="curve" smooth="yes"/>
      <point x="31" y="-127"/>
      <point x="44" y="-133"/>
    </contour>
    <contour>
      <point x="908" y="54" type="curve" smooth="yes"/>
      <point x="902" y="54"/>
      <point x="884" y="68"/>
      <point x="884" y="84" type="curve" smooth="yes"/>
      <point x="884" y="93"/>
      <point x="888" y="97"/>
      <point x="892" y="97" type="curve" smooth="yes"/>
      <point x="902" y="97"/>
      <point x="918" y="81"/>
      <point x="918" y="66" type="curve" smooth="yes"/>
      <point x="918" y="59"/>
      <point x="914" y="54"/>
    </contour>
    <contour>
      <point x="572" y="137" type="curve" smooth="yes"/>
      <point x="533" y="137"/>
      <point x="480" y="178"/>
      <point x="480" y="233" type="curve" smooth="yes"/>
      <point x="480" y="288"/>
      <point x="531" y="294"/>
      <point x="560" y="294" type="curve" smooth="yes"/>
      <point x="623" y="294"/>
      <point x="649" y="236"/>
      <point x="649" y="199" type="curve" smooth="yes"/>
      <point x="649" y="163"/>
      <point x="611" y="137"/>
    </contour>
    <contour>
      <point x="558" y="171" type="curve" smooth="yes"/>
      <point x="573" y="171"/>
      <point x="585" y="190"/>
      <point x="585" y="215" type="curve" smooth="yes"/>
      <point x="585" y="241"/>
      <point x="574" y="262"/>
      <point x="559" y="262" type="curve" smooth="yes"/>
      <point x="543" y="262"/>
      <point x="531" y="242"/>
      <point x="531" y="216" type="curve" smooth="yes"/>
      <point x="531" y="191"/>
      <point x="543" y="171"/>
    </contour>
    <contour>
      <point x="827" y="465" type="curve" smooth="yes"/>
      <point x="846" y="465"/>
      <point x="868" y="483"/>
      <point x="868" y="511" type="curve" smooth="yes"/>
      <point x="868" y="526"/>
      <point x="856" y="537"/>
      <point x="840" y="537" type="curve" smooth="yes"/>
      <point x="817" y="537"/>
      <point x="799" y="521"/>
      <point x="799" y="500" type="curve" smooth="yes"/>
      <point x="799" y="475"/>
      <point x="812" y="465"/>
    </contour>
    <contour>
      <point x="875" y="592" type="curve" smooth="yes"/>
      <point x="902" y="592"/>
      <point x="924" y="615"/>
      <point x="924" y="644" type="curve" smooth="yes"/>
      <point x="924" y="673"/>
      <point x="905" y="696"/>
      <point x="880" y="696" type="curve" smooth="yes"/>
      <point x="853" y="696"/>
      <point x="832" y="673"/>
      <point x="832" y="643" type="curve" smooth="yes"/>
      <point x="832" y="614"/>
      <point x="851" y="592"/>
    </contour>
    <contour>
      <point x="745" y="563" type="curve" smooth="yes"/>
      <point x="756" y="563"/>
      <point x="771" y="568"/>
      <point x="771" y="582" type="curve" smooth="yes"/>
      <point x="771" y="596"/>
      <point x="762" y="613"/>
      <point x="749" y="613" type="curve" smooth="yes"/>
      <point x="738" y="613"/>
      <point x="725" y="600"/>
      <point x="725" y="586" type="curve" smooth="yes"/>
      <point x="725" y="572"/>
      <point x="734" y="563"/>
    </contour>
  </outline>
</glyph>
<glyph name="C" format="2">
  <advance width="1000"/>
  <unicode hex="0043"/>
  <outline>
    <contour>
      <point x="410" y="-192" type="curve" smooth="yes"/>
      <point x="456" y="-192"/>
      <point x="491" y="-145"/>
      <point x="491" y="-128" type="curve" smooth="yes"/>
      <point x="491" y="-111"/>
      <point x="480" y="-109"/>
      <point x="480" y="-100" type="curve" smooth="yes"/>
      <point x="480" y="-91"/>
      <point x="482" y="-85"/>
      <point x="488" y="-85" type="curve" smooth="yes"/>
      <point x="492" y="-85"/>
      <point x="497" y="-88"/>
      <point x="506" y="-88" type="curve" smooth="yes"/>
      <point x="513" y="-88"/>
      <point x="521" y="-86"/>
      <point x="531" y="-82" type="curve" smooth="yes"/>
      <point x="556" y="-71"/>
      <point x="560" y="-45"/>
      <point x="579" y="-32" type="curve" smooth="yes"/>
      <point x="598" y="-19"/>
      <point x="615" y="-18"/>
      <point x="629" y="-18" type="curve" smooth="yes"/>
      <point x="643" y="-18"/>
      <point x="646" y="-24"/>
      <point x="646" y="-33" type="curve" smooth="yes"/>
      <point x="646" y="-43"/>
      <point x="626" y="-62"/>
      <point x="616" y="-71" type="curve" smooth="yes"/>
      <point x="606" y="-80"/>
      <point x="599" y="-94"/>
      <point x="599" y="-117" type="curve" smooth="yes"/>
      <point x="599" y="-127"/>
      <point x="602" y="-130"/>
      <point x="606" y="-130" type="curve" smooth="yes"/>
      <point x="610" y="-130"/>
      <point x="616" y="-124"/>
      <point x="616" y="-120" type="curve" smooth="yes"/>
      <point x="616" y="-118"/>
      <point x="615" y="-116"/>
      <point x="615" y="-114" type="curve" smooth="yes"/>
      <point x="615" y="-110"/>
      <point x="618" y="-104"/>
      <point x="635" y="-93" type="curve" smooth="yes"/>
      <point x="660" y="-76"/>
      <point x="681" y="-47"/>
      <point x="689" y="-27" type="curve" smooth="yes"/>
      <point x="697" y="-7"/>
      <point x="720" y="0"/>
      <point x="758" y="18" type="curve" smooth="yes"/>
      <point x="796" y="36"/>
      <point x="811" y="82"/>
      <point x="811" y="104" type="curve" smooth="yes"/>
      <point x="811" y="126"/>
      <point x="816" y="152"/>
      <point x="837" y="152" type="curve" smooth="yes"/>
      <point x="858" y="152"/>
      <point x="865" y="140"/>
      <point x="896" y="140" type="curve" smooth="yes"/>
      <point x="920" y="140"/>
      <point x="928" y="161"/>
      <point x="952" y="161" type="curve" smooth="yes"/>
      <point x="966" y="161"/>
      <point x="976" y="158"/>
      <point x="990" y="158" type="curve" smooth="yes"/>
      <point x="1010" y="158" type="line"/>
      <point x="1010" y="442" type="line"/>
      <point x="990" y="442" type="line" smooth="yes"/>
      <point x="948" y="442"/>
      <point x="918" y="434"/>
      <point x="891" y="434" type="curve" smooth="yes"/>
      <point x="871" y="434"/>
      <point x="859" y="440"/>
      <point x="851" y="451" type="curve" smooth="yes"/>
      <point x="841" y="466"/>
      <point x="829" y="480"/>
      <point x="809" y="494" type="curve" smooth="yes"/>
      <point x="799" y="501"/>
      <point x="793" y="511"/>
      <point x="787" y="524" type="curve"/>
      <point x="776" y="544"/>
      <point x="773" y="559"/>
      <point x="761" y="572" type="curve" smooth="yes"/>
      <point x="749" y="585"/>
      <point x="726" y="598"/>
      <point x="718" y="609" type="curve" smooth="yes"/>
      <point x="710" y="620"/>
      <point x="691" y="668"/>
      <point x="667" y="698" type="curve" smooth="yes"/>
      <point x="643" y="728"/>
      <point x="587" y="753"/>
      <point x="540" y="753" type="curve" smooth="yes"/>
      <point x="521" y="753"/>
      <point x="513" y="748"/>
      <point x="513" y="743" type="curve" smooth="yes"/>
      <point x="513" y="737"/>
      <point x="522" y="731"/>
      <point x="538" y="731" type="curve" smooth="yes"/>
      <point x="574" y="731"/>
      <point x="616" y="689"/>
      <point x="627" y="663" type="curve" smooth="yes"/>
      <point x="638" y="637"/>
      <point x="651" y="606"/>
      <point x="665" y="592" type="curve" smooth="yes"/>
      <point x="679" y="578"/>
      <point x="696" y="569"/>
      <point x="696" y="545" type="curve" smooth="yes"/>
      <point x="696" y="521"/>
      <point x="682" y="508"/>
      <point x="662" y="508" type="curve" smooth="yes"/>
      <point x="642" y="508"/>
      <point x="617" y="530"/>
      <point x="607" y="554" type="curve" smooth="yes"/>
      <point x="597" y="578"/>
      <point x="565" y="684"/>
      <point x="483" y="684" type="curve" smooth="yes"/>
      <point x="438" y="684"/>
      <point x="407" y="689"/>
      <point x="383" y="716" type="curve" smooth="yes"/>
      <point x="359" y="743"/>
      <point x="334" y="771"/>
      <point x="285" y="771" type="curve" smooth="yes"/>
      <point x="276" y="771"/>
      <point x="270" y="766"/>
      <point x="270" y="761" type="curve" smooth="yes"/>
      <point x="270" y="757"/>
      <point x="275" y="753"/>
      <point x="286" y="753" type="curve" smooth="yes"/>
      <point x="308" y="753"/>
      <point x="327" y="737"/>
      <point x="337" y="713" type="curve" smooth="yes"/>
      <point x="347" y="689"/>
      <point x="369" y="655"/>
      <point x="396" y="655" type="curve" smooth="yes"/>
      <point x="423" y="655"/>
      <point x="438" y="655"/>
      <point x="438" y="643" type="curve" smooth="yes"/>
      <point x="438" y="631"/>
      <point x="431" y="623"/>
      <point x="398" y="623" type="curve" smooth="yes"/>
      <point x="365" y="623"/>
      <point x="339" y="638"/>
      <point x="315" y="662" type="curve" smooth="yes"/>
      <point x="291" y="686"/>
      <point x="229" y="741"/>
      <point x="161" y="741" type="curve" smooth="yes"/>
      <point x="152" y="741"/>
      <point x="144" y="736"/>
      <point x="144" y="731" type="curve" smooth="yes"/>
      <point x="144" y="727"/>
      <point x="149" y="723"/>
      <point x="162" y="723" type="curve" smooth="yes"/>
      <point x="190" y="723"/>
      <point x="194" y="706"/>
      <point x="217" y="690" type="curve" smooth="yes"/>
      <point x="240" y="674"/>
      <point x="259" y="676"/>
      <point x="259" y="664" type="curve" smooth="yes"/>
      <point x="259" y="652"/>
      <point x="247" y="639"/>
      <point x="226" y="639" type="curve" smooth="yes"/>
      <point x="205" y="639"/>
      <point x="193" y="646"/>
      <point x="175" y="646" type="curve" smooth="yes"/>
      <point x="166" y="646"/>
      <point x="162" y="642"/>
      <point x="162" y="637" type="curve" smooth="yes"/>
      <point x="162" y="632"/>
      <point x="168" y="627"/>
      <point x="177" y="627" type="curve" smooth="yes"/>
      <point x="195" y="627"/>
      <point x="221" y="612"/>
      <point x="246" y="612" type="curve" smooth="yes"/>
      <point x="271" y="612"/>
      <point x="268" y="625"/>
      <point x="291" y="625" type="curve" smooth="yes"/>
      <point x="314" y="625"/>
      <point x="318" y="569"/>
      <point x="389" y="569" type="curve" smooth="yes"/>
      <point x="438" y="569"/>
      <point x="436" y="591"/>
      <point x="466" y="591" type="curve" smooth="yes"/>
      <point x="526" y="591"/>
      <point x="517" y="457"/>
      <point x="600" y="457" type="curve" smooth="yes"/>
      <point x="683" y="457"/>
      <point x="726" y="436"/>
      <point x="726" y="405" type="curve" smooth="yes"/>
      <point x="726" y="374"/>
      <point x="695" y="346"/>
      <point x="661" y="346" type="curve" smooth="yes"/>
      <point x="597" y="346"/>
      <point x="598" y="435"/>
      <point x="535" y="435" type="curve" smooth="yes"/>
      <point x="489" y="435"/>
      <point x="483" y="428"/>
      <point x="460" y="428" type="curve" smooth="yes"/>
      <point x="437" y="428"/>
      <point x="410" y="464"/>
      <point x="388" y="464" type="curve" smooth="yes"/>
      <point x="366" y="464"/>
      <point x="346" y="488"/>
      <point x="324" y="514" type="curve" smooth="yes"/>
      <point x="302" y="540"/>
      <point x="247" y="561"/>
      <point x="220" y="561" type="curve" smooth="yes"/>
      <point x="210" y="561"/>
      <point x="205" y="556"/>
      <point x="205" y="550" type="curve" smooth="yes"/>
      <point x="205" y="546"/>
      <point x="209" y="541"/>
      <point x="220" y="541" type="curve" smooth="yes"/>
      <point x="242" y="541"/>
      <point x="264" y="523"/>
      <point x="279" y="499" type="curve" smooth="yes"/>
      <point x="292" y="479"/>
      <point x="297" y="474"/>
      <point x="309" y="474" type="curve" smooth="yes"/>
      <point x="318" y="474"/>
      <point x="323" y="469"/>
      <point x="323" y="463" type="curve" smooth="yes"/>
      <point x="323" y="459"/>
      <point x="319" y="454"/>
      <point x="312" y="454" type="curve" smooth="yes"/>
      <point x="273" y="454"/>
      <point x="259" y="472"/>
      <point x="227" y="472" type="curve" smooth="yes"/>
      <point x="181" y="472"/>
      <point x="148" y="435"/>
      <point x="148" y="424" type="curve" smooth="yes"/>
      <point x="148" y="413"/>
      <point x="150" y="412"/>
      <point x="155" y="412" type="curve" smooth="yes"/>
      <point x="160" y="412"/>
      <point x="184" y="430"/>
      <point x="211" y="430" type="curve" smooth="yes"/>
      <point x="238" y="430"/>
      <point x="237" y="416"/>
      <point x="264" y="416" type="curve" smooth="yes"/>
      <point x="311" y="416"/>
      <point x="300" y="424"/>
      <point x="333" y="424" type="curve" smooth="yes"/>
      <point x="366" y="424"/>
      <point x="380" y="375"/>
      <point x="423" y="375" type="curve" smooth="yes"/>
      <point x="440" y="375"/>
      <point x="464" y="378"/>
      <point x="485" y="378" type="curve" smooth="yes"/>
      <point x="516" y="378"/>
      <point x="544" y="372"/>
      <point x="544" y="342" type="curve" smooth="yes"/>
      <point x="544" y="317"/>
      <point x="515" y="304"/>
      <point x="501" y="304" type="curve" smooth="yes"/>
      <point x="487" y="304"/>
      <point x="388" y="358"/>
      <point x="324" y="358" type="curve" smooth="yes"/>
      <point x="269" y="358"/>
      <point x="227" y="299"/>
      <point x="194" y="290" type="curve" smooth="yes"/>
      <point x="161" y="281"/>
      <point x="83" y="264"/>
      <point x="65" y="252" type="curve" smooth="yes"/>
      <point x="55" y="245"/>
      <point x="47" y="236"/>
      <point x="47" y="230" type="curve" smooth="yes"/>
      <point x="47" y="226"/>
      <point x="51" y="223"/>
      <point x="60" y="223" type="curve" smooth="yes"/>
      <point x="81" y="223"/>
      <point x="93" y="233"/>
      <point x="128" y="233" type="curve" smooth="yes"/>
      <point x="163" y="233"/>
      <point x="209" y="174"/>
      <point x="289" y="174" type="curve" smooth="yes"/>
      <point x="369" y="174"/>
      <point x="388" y="223"/>
      <point x="434" y="223" type="curve" smooth="yes"/>
      <point x="448" y="223"/>
      <point x="455" y="214"/>
      <point x="455" y="202" type="curve" smooth="yes"/>
      <point x="455" y="190"/>
      <point x="439" y="163"/>
      <point x="413" y="163" type="curve" smooth="yes"/>
      <point x="387" y="163"/>
      <point x="341" y="171"/>
      <point x="309" y="114" type="curve" smooth="yes"/>
      <point x="277" y="57"/>
      <point x="260" y="62"/>
      <point x="243" y="62" type="curve" smooth="yes"/>
      <point x="226" y="62"/>
      <point x="208" y="74"/>
      <point x="185" y="74" type="curve" smooth="yes"/>
      <point x="162" y="74"/>
      <point x="139" y="63"/>
      <point x="139" y="53" type="curve" smooth="yes"/>
      <point x="139" y="43"/>
      <point x="148" y="36"/>
      <point x="156" y="36" type="curve" smooth="yes"/>
      <point x="164" y="36"/>
      <point x="174" y="41"/>
      <point x="186" y="41" type="curve" smooth="yes"/>
      <point x="205" y="41"/>
      <point x="238" y="19"/>
      <point x="262" y="19" type="curve" smooth="yes"/>
      <point x="311" y="19"/>
      <point x="335" y="82"/>
      <point x="367" y="93" type="curve" smooth="yes"/>
      <point x="399" y="104"/>
      <point x="417" y="94"/>
      <point x="445" y="108" type="curve" smooth="yes"/>
      <point x="473" y="122"/>
      <point x="492" y="140"/>
      <point x="512" y="140" type="curve" smooth="yes"/>
      <point x="532" y="140"/>
      <point x="549" y="134"/>
      <point x="575" y="134" type="curve" smooth="yes"/>
      <point x="601" y="134"/>
      <point x="688" y="191"/>
      <point x="719" y="191" type="curve" smooth="yes"/>
      <point x="743" y="191"/>
      <point x="749" y="171"/>
      <point x="749" y="157" type="curve" smooth="yes"/>
      <point x="749" y="143"/>
      <point x="729" y="66"/>
      <point x="672" y="66" type="curve" smooth="yes"/>
      <point x="615" y="66"/>
      <point x="569" y="45"/>
      <point x="550" y="29" type="curve" smooth="yes"/>
      <point x="531" y="13"/>
      <point x="519" y="-50"/>
      <point x="448" y="-50" type="curve"/>
      <point x="428" y="-50"/>
      <point x="417" y="-52"/>
      <point x="369" y="-52" type="curve" smooth="yes"/>
      <point x="321" y="-52"/>
      <point x="287" y="-108"/>
      <point x="264" y="-108" type="curve" smooth="yes"/>
      <point x="255" y="-108"/>
      <point x="250" y="-113"/>
      <point x="250" y="-118" type="curve" smooth="yes"/>
      <point x="250" y="-123"/>
      <point x="255" y="-128"/>
      <point x="264" y="-128" type="curve" smooth="yes"/>
      <point x="298" y="-128"/>
      <point x="318" y="-96"/>
      <point x="338" y="-96" type="curve" smooth="yes"/>
      <point x="358" y="-96"/>
      <point x="376" y="-105"/>
      <point x="391" y="-105" type="curve" smooth="yes"/>
      <point x="406" y="-105"/>
      <point x="420" y="-99"/>
      <point x="436" y="-99" type="curve" smooth="yes"/>
      <point x="452" y="-99"/>
      <point x="458" y="-108"/>
      <point x="458" y="-123" type="curve" smooth="yes"/>
      <point x="458" y="-158"/>
      <point x="423" y="-176"/>
      <point x="411" y="-176" type="curve" smooth="yes"/>
      <point x="405" y="-176"/>
      <point x="402" y="-180"/>
      <point x="402" y="-184" type="curve" smooth="yes"/>
      <point x="402" y="-188"/>
      <point x="405" y="-192"/>
    </contour>
  </outline>
</glyph>
<glyph name="D" format="2">
  <advance width="1000"/>
  <unicode hex="0044"/>
  <outline>
    <contour>
      <point x="449" y="-191" type="curve" smooth="yes"/>
      <point x="495" y="-191"/>
      <point x="514" y="-179"/>
      <point x="514" y="-166" type="curve" smooth="yes"/>
      <point x="514" y="-156"/>
      <point x="504" y="-148"/>
      <point x="486" y="-148" type="curve" smooth="yes"/>
      <point x="465" y="-148"/>
      <point x="463" y="-103"/>
      <point x="444" y="-54" type="curve" smooth="yes"/>
      <point x="401" y="53"/>
      <point x="327" y="92"/>
      <point x="208" y="92" type="curve" smooth="yes"/>
      <point x="167" y="92"/>
      <point x="117" y="127"/>
      <point x="117" y="156" type="curve" smooth="yes"/>
      <point x="117" y="166"/>
      <point x="126" y="174"/>
      <point x="138" y="174" type="curve" smooth="yes"/>
      <point x="151" y="174"/>
      <point x="179" y="164"/>
      <point x="196" y="164" type="curve" smooth="yes"/>
      <point x="264" y="164"/>
      <point x="370" y="267"/>
      <point x="452" y="267" type="curve" smooth="yes"/>
      <point x="507" y="267"/>
      <point x="550" y="233"/>
      <point x="550" y="189" type="curve" smooth="yes"/>
      <point x="550" y="147"/>
      <point x="505" y="107"/>
      <point x="505" y="43" type="curve" smooth="yes"/>
      <point x="505" y="-61"/>
      <point x="624" y="-110"/>
      <point x="697" y="-134" type="curve" smooth="yes"/>
      <point x="724" y="-143"/>
      <point x="729" y="-172"/>
      <point x="748" y="-172" type="curve" smooth="yes"/>
      <point x="754" y="-172"/>
      <point x="758" y="-167"/>
      <point x="758" y="-158" type="curve" smooth="yes"/>
      <point x="758" y="-131"/>
      <point x="730" y="-114"/>
      <point x="730" y="-78" type="curve" smooth="yes"/>
      <point x="730" y="-39"/>
      <point x="735" y="-5"/>
      <point x="735" y="25" type="curve" smooth="yes"/>
      <point x="735" y="109"/>
      <point x="712" y="166"/>
      <point x="587" y="231" type="curve" smooth="yes"/>
      <point x="567" y="241"/>
      <point x="558" y="253"/>
      <point x="558" y="262" type="curve" smooth="yes"/>
      <point x="558" y="269"/>
      <point x="565" y="274"/>
      <point x="577" y="274" type="curve" smooth="yes"/>
      <point x="676" y="274"/>
      <point x="810" y="197"/>
      <point x="810" y="102" type="curve" smooth="yes"/>
      <point x="810" y="80"/>
      <point x="801" y="26"/>
      <point x="801" y="-3" type="curve" smooth="yes"/>
      <point x="801" y="-48"/>
      <point x="845" y="-64"/>
      <point x="855" y="-108" type="curve" smooth="yes"/>
      <point x="859" y="-126"/>
      <point x="858" y="-143"/>
      <point x="870" y="-143" type="curve" smooth="yes"/>
      <point x="882" y="-143"/>
      <point x="883" y="-124"/>
      <point x="894" y="-104" type="curve" smooth="yes"/>
      <point x="909" y="-78"/>
      <point x="936" y="-49"/>
      <point x="936" y="-8" type="curve" smooth="yes"/>
      <point x="936" y="73"/>
      <point x="832" y="105"/>
      <point x="832" y="166" type="curve" smooth="yes"/>
      <point x="832" y="175"/>
      <point x="836" y="184"/>
      <point x="844" y="184" type="curve" smooth="yes"/>
      <point x="866" y="184"/>
      <point x="886" y="146"/>
      <point x="921" y="146" type="curve" smooth="yes"/>
      <point x="956" y="146"/>
      <point x="960" y="158"/>
      <point x="990" y="158" type="curve" smooth="yes"/>
      <point x="1010" y="158" type="line"/>
      <point x="1010" y="442" type="line"/>
      <point x="990" y="442" type="line" smooth="yes"/>
      <point x="977" y="442"/>
      <point x="959" y="435"/>
      <point x="939" y="435" type="curve" smooth="yes"/>
      <point x="838" y="435"/>
      <point x="813" y="525"/>
      <point x="745" y="525" type="curve" smooth="yes"/>
      <point x="733" y="525"/>
      <point x="724" y="517"/>
      <point x="715" y="517" type="curve" smooth="yes"/>
      <point x="706" y="517"/>
      <point x="699" y="522"/>
      <point x="699" y="532" type="curve" smooth="yes"/>
      <point x="699" y="554"/>
      <point x="736" y="566"/>
      <point x="761" y="566" type="curve" smooth="yes"/>
      <point x="786" y="566"/>
      <point x="794" y="561"/>
      <point x="836" y="561" type="curve" smooth="yes"/>
      <point x="920" y="561"/>
      <point x="927" y="637"/>
      <point x="935" y="665" type="curve" smooth="yes"/>
      <point x="943" y="693"/>
      <point x="959" y="704"/>
      <point x="970" y="704" type="curve" smooth="yes"/>
      <point x="985" y="704"/>
      <point x="994" y="711"/>
      <point x="994" y="718" type="curve" smooth="yes"/>
      <point x="994" y="730"/>
      <point x="976" y="743"/>
      <point x="933" y="743" type="curve" smooth="yes"/>
      <point x="857" y="743"/>
      <point x="819" y="687"/>
      <point x="793" y="649" type="curve" smooth="yes"/>
      <point x="767" y="611"/>
      <point x="734" y="576"/>
      <point x="693" y="576" type="curve" smooth="yes"/>
      <point x="662" y="576"/>
      <point x="640" y="580"/>
      <point x="599" y="580" type="curve" smooth="yes"/>
      <point x="404" y="580"/>
      <point x="275" y="428"/>
      <point x="219" y="428" type="curve" smooth="yes"/>
      <point x="208" y="428"/>
      <point x="200" y="436"/>
      <point x="200" y="447" type="curve" smooth="yes"/>
      <point x="200" y="459"/>
      <point x="208" y="470"/>
      <point x="228" y="478" type="curve" smooth="yes"/>
      <point x="321" y="517"/>
      <point x="358" y="579"/>
      <point x="387" y="655" type="curve" smooth="yes"/>
      <point x="416" y="731"/>
      <point x="446" y="751"/>
      <point x="462" y="751" type="curve" smooth="yes"/>
      <point x="479" y="751"/>
      <point x="489" y="758"/>
      <point x="489" y="765" type="curve" smooth="yes"/>
      <point x="489" y="775"/>
      <point x="473" y="786"/>
      <point x="436" y="786" type="curve" smooth="yes"/>
      <point x="206" y="786"/>
      <point x="146" y="614"/>
      <point x="146" y="553" type="curve" smooth="yes"/>
      <point x="146" y="492"/>
      <point x="168" y="476"/>
      <point x="168" y="452" type="curve" smooth="yes"/>
      <point x="168" y="428"/>
      <point x="156" y="421"/>
      <point x="138" y="421" type="curve" smooth="yes"/>
      <point x="95" y="421"/>
      <point x="64" y="442"/>
      <point x="10" y="442" type="curve" smooth="yes"/>
      <point x="-10" y="442" type="line"/>
      <point x="-10" y="158" type="line"/>
      <point x="10" y="158" type="line" smooth="yes"/>
      <point x="56" y="158"/>
      <point x="88" y="130"/>
      <point x="128" y="88" type="curve" smooth="yes"/>
      <point x="169" y="44"/>
      <point x="148" y="0"/>
      <point x="207" y="-83" type="curve" smooth="yes"/>
      <point x="275" y="-184"/>
      <point x="386" y="-191"/>
    </contour>
  </outline>
</glyph>
<glyph name="E" format="2">
  <advance width="1000"/>
  <unicode hex="0045"/>
  <outline>
    <contour>
      <point x="639" y="-170" type="curve" smooth="yes"/>
      <point x="651" y="-170"/>
      <point x="657" y="-163"/>
      <point x="657" y="-157" type="curve" smooth="yes"/>
      <point x="657" y="-150"/>
      <point x="651" y="-143"/>
      <point x="639" y="-143" type="curve" smooth="yes"/>
      <point x="606" y="-143"/>
      <point x="568" y="-106"/>
      <point x="557" y="-62" type="curve" smooth="yes"/>
      <point x="550" y="-39"/>
      <point x="545" y="-13"/>
      <point x="535" y="6" type="curve" smooth="yes"/>
      <point x="501" y="68"/>
      <point x="415" y="90"/>
      <point x="415" y="151" type="curve" smooth="yes"/>
      <point x="415" y="160"/>
      <point x="420" y="167"/>
      <point x="431" y="167" type="curve" smooth="yes"/>
      <point x="477" y="167"/>
      <point x="522" y="7"/>
      <point x="631" y="7" type="curve" smooth="yes"/>
      <point x="728" y="7"/>
      <point x="780" y="133"/>
      <point x="843" y="133" type="curve" smooth="yes"/>
      <point x="874" y="133"/>
      <point x="874" y="92"/>
      <point x="901" y="92" type="curve" smooth="yes"/>
      <point x="908" y="92"/>
      <point x="914" y="99"/>
      <point x="914" y="112" type="curve" smooth="yes"/>
      <point x="914" y="163"/>
      <point x="837" y="201"/>
      <point x="765" y="201" type="curve" smooth="yes"/>
      <point x="693" y="201"/>
      <point x="637" y="153"/>
      <point x="571" y="153" type="curve" smooth="yes"/>
      <point x="524" y="153"/>
      <point x="497" y="172"/>
      <point x="483" y="190" type="curve" smooth="yes"/>
      <point x="475" y="200"/>
      <point x="471" y="209"/>
      <point x="471" y="216" type="curve" smooth="yes"/>
      <point x="471" y="226"/>
      <point x="478" y="232"/>
      <point x="490" y="232" type="curve" smooth="yes"/>
      <point x="507" y="232"/>
      <point x="542" y="195"/>
      <point x="582" y="195" type="curve" smooth="yes"/>
      <point x="660" y="195"/>
      <point x="697" y="252"/>
      <point x="743" y="334" type="curve" smooth="yes"/>
      <point x="775" y="390"/>
      <point x="832" y="442"/>
      <point x="881" y="442" type="curve" smooth="yes"/>
      <point x="922" y="442"/>
      <point x="930" y="414"/>
      <point x="948" y="414" type="curve" smooth="yes"/>
      <point x="957" y="414"/>
      <point x="963" y="421"/>
      <point x="963" y="431" type="curve" smooth="yes"/>
      <point x="963" y="471"/>
      <point x="874" y="516"/>
      <point x="776" y="516" type="curve" smooth="yes"/>
      <point x="697" y="516"/>
      <point x="636" y="469"/>
      <point x="573" y="377" type="curve" smooth="yes"/>
      <point x="513" y="289"/>
      <point x="481" y="266"/>
      <point x="459" y="266" type="curve" smooth="yes"/>
      <point x="447" y="266"/>
      <point x="441" y="272"/>
      <point x="441" y="281" type="curve" smooth="yes"/>
      <point x="441" y="293"/>
      <point x="448" y="305"/>
      <point x="477" y="314" type="curve" smooth="yes"/>
      <point x="535" y="331"/>
      <point x="534" y="379"/>
      <point x="534" y="451" type="curve" smooth="yes"/>
      <point x="534" y="540"/>
      <point x="619" y="615"/>
      <point x="715" y="615" type="curve" smooth="yes"/>
      <point x="771" y="615"/>
      <point x="831" y="637"/>
      <point x="831" y="681" type="curve" smooth="yes"/>
      <point x="831" y="695"/>
      <point x="825" y="702"/>
      <point x="817" y="702" type="curve" smooth="yes"/>
      <point x="797" y="702"/>
      <point x="805" y="662"/>
      <point x="760" y="662" type="curve" smooth="yes"/>
      <point x="705" y="662"/>
      <point x="646" y="705"/>
      <point x="567" y="705" type="curve" smooth="yes"/>
      <point x="461" y="705"/>
      <point x="378" y="619"/>
      <point x="378" y="510" type="curve" smooth="yes"/>
      <point x="378" y="461"/>
      <point x="392" y="430"/>
      <point x="392" y="401" type="curve" smooth="yes"/>
      <point x="392" y="372"/>
      <point x="382" y="347"/>
      <point x="343" y="347" type="curve" smooth="yes"/>
      <point x="317" y="347"/>
      <point x="305" y="360"/>
      <point x="305" y="389" type="curve" smooth="yes"/>
      <point x="305" y="418"/>
      <point x="343" y="455"/>
      <point x="343" y="511" type="curve" smooth="yes"/>
      <point x="343" y="551"/>
      <point x="329" y="605"/>
      <point x="303" y="605" type="curve" smooth="yes"/>
      <point x="297" y="605"/>
      <point x="293" y="601"/>
      <point x="293" y="593" type="curve" smooth="yes"/>
      <point x="293" y="584"/>
      <point x="302" y="575"/>
      <point x="302" y="559" type="curve" smooth="yes"/>
      <point x="302" y="542"/>
      <point x="288" y="533"/>
      <point x="272" y="523" type="curve" smooth="yes"/>
      <point x="252" y="511"/>
      <point x="229" y="497"/>
      <point x="229" y="459" type="curve" smooth="yes"/>
      <point x="229" y="420"/>
      <point x="264" y="398"/>
      <point x="264" y="378" type="curve" smooth="yes"/>
      <point x="264" y="358"/>
      <point x="250" y="344"/>
      <point x="229" y="344" type="curve" smooth="yes"/>
      <point x="208" y="344"/>
      <point x="179" y="379"/>
      <point x="179" y="437" type="curve" smooth="yes"/>
      <point x="179" y="495"/>
      <point x="204" y="533"/>
      <point x="204" y="590" type="curve" smooth="yes"/>
      <point x="204" y="682"/>
      <point x="133" y="755"/>
      <point x="42" y="755" type="curve" smooth="yes"/>
      <point x="34" y="755"/>
      <point x="29" y="748"/>
      <point x="29" y="741" type="curve" smooth="yes"/>
      <point x="29" y="735"/>
      <point x="33" y="729"/>
      <point x="43" y="729" type="curve" smooth="yes"/>
      <point x="61" y="729"/>
      <point x="75" y="707"/>
      <point x="75" y="678" type="curve" smooth="yes"/>
      <point x="75" y="650"/>
      <point x="62" y="620"/>
      <point x="62" y="575" type="curve" smooth="yes"/>
      <point x="62" y="486"/>
      <point x="145" y="442"/>
      <point x="145" y="406" type="curve" smooth="yes"/>
      <point x="145" y="388"/>
      <point x="135" y="376"/>
      <point x="120" y="376" type="curve" smooth="yes"/>
      <point x="83" y="376"/>
      <point x="73" y="442"/>
      <point x="0" y="442" type="curve" smooth="yes"/>
      <point x="-10" y="442" type="line"/>
      <point x="-10" y="158" type="line"/>
      <point x="0" y="158" type="line" smooth="yes"/>
      <point x="48" y="158"/>
      <point x="81" y="209"/>
      <point x="115" y="209" type="curve" smooth="yes"/>
      <point x="137" y="209"/>
      <point x="146" y="202"/>
      <point x="146" y="193" type="curve" smooth="yes"/>
      <point x="146" y="177"/>
      <point x="122" y="153"/>
      <point x="98" y="138" type="curve" smooth="yes"/>
      <point x="59" y="114"/>
      <point x="18" y="78"/>
      <point x="18" y="22" type="curve" smooth="yes"/>
      <point x="18" y="-41"/>
      <point x="41" y="-41"/>
      <point x="41" y="-66" type="curve" smooth="yes"/>
      <point x="41" y="-91"/>
      <point x="25" y="-100"/>
      <point x="15" y="-105" type="curve" smooth="yes"/>
      <point x="11" y="-107"/>
      <point x="10" y="-110"/>
      <point x="10" y="-114" type="curve" smooth="yes"/>
      <point x="10" y="-120"/>
      <point x="15" y="-127"/>
      <point x="25" y="-127" type="curve" smooth="yes"/>
      <point x="88" y="-127"/>
      <point x="162" y="-48"/>
      <point x="162" y="48" type="curve" smooth="yes"/>
      <point x="162" y="72"/>
      <point x="156" y="93"/>
      <point x="156" y="120" type="curve" smooth="yes"/>
      <point x="156" y="185"/>
      <point x="228" y="207"/>
      <point x="251" y="207" type="curve" smooth="yes"/>
      <point x="276" y="207"/>
      <point x="294" y="192"/>
      <point x="294" y="166" type="curve" smooth="yes"/>
      <point x="294" y="109"/>
      <point x="227" y="112"/>
      <point x="227" y="46" type="curve" smooth="yes"/>
      <point x="227" y="16"/>
      <point x="245" y="-5"/>
      <point x="257" y="-24" type="curve" smooth="yes"/>
      <point x="262" y="-32"/>
      <point x="265" y="-42"/>
      <point x="265" y="-49" type="curve" smooth="yes"/>
      <point x="265" y="-59"/>
      <point x="258" y="-66"/>
      <point x="248" y="-66" type="curve" smooth="yes"/>
      <point x="238" y="-66"/>
      <point x="233" y="-72"/>
      <point x="233" y="-79" type="curve" smooth="yes"/>
      <point x="233" y="-87"/>
      <point x="239" y="-95"/>
      <point x="249" y="-95" type="curve" smooth="yes"/>
      <point x="300" y="-95"/>
      <point x="338" y="-41"/>
      <point x="338" y="30" type="curve" smooth="yes"/>
      <point x="338" y="75"/>
      <point x="328" y="103"/>
      <point x="328" y="120" type="curve" smooth="yes"/>
      <point x="328" y="152"/>
      <point x="338" y="163"/>
      <point x="350" y="163" type="curve" smooth="yes"/>
      <point x="366" y="163"/>
      <point x="386" y="141"/>
      <point x="386" y="124" type="curve" smooth="yes"/>
      <point x="386" y="95"/>
      <point x="377" y="87"/>
      <point x="377" y="58" type="curve" smooth="yes"/>
      <point x="377" y="-95"/>
      <point x="491" y="-170"/>
    </contour>
  </outline>
</glyph>
<glyph name="F" format="2">
  <advance width="1000"/>
  <unicode hex="0046"/>
  <outline>
    <contour>
      <point x="630" y="-195" type="curve" smooth="yes"/>
      <point x="762" y="-195"/>
      <point x="826" y="-119"/>
      <point x="826" y="-12" type="curve" smooth="yes"/>
      <point x="826" y="124"/>
      <point x="642" y="214"/>
      <point x="456" y="257" type="curve" smooth="yes"/>
      <point x="325" y="286"/>
      <point x="196" y="327"/>
      <point x="196" y="414" type="curve" smooth="yes"/>
      <point x="196" y="474"/>
      <point x="231" y="522"/>
      <point x="300" y="522" type="curve"/>
      <point x="342" y="522"/>
      <point x="355" y="499"/>
      <point x="355" y="468" type="curve" smooth="yes"/>
      <point x="355" y="452"/>
      <point x="344" y="437"/>
      <point x="336" y="430" type="curve" smooth="yes"/>
      <point x="331" y="426"/>
      <point x="328" y="420"/>
      <point x="328" y="415" type="curve" smooth="yes"/>
      <point x="328" y="408"/>
      <point x="334" y="402"/>
      <point x="343" y="402" type="curve" smooth="yes"/>
      <point x="349" y="402"/>
      <point x="365" y="403"/>
      <point x="384" y="451" type="curve" smooth="yes"/>
      <point x="415" y="529"/>
      <point x="457" y="607"/>
      <point x="553" y="607" type="curve" smooth="yes"/>
      <point x="583" y="607"/>
      <point x="597" y="586"/>
      <point x="614" y="586" type="curve" smooth="yes"/>
      <point x="624" y="586"/>
      <point x="630" y="593"/>
      <point x="630" y="603" type="curve" smooth="yes"/>
      <point x="630" y="642"/>
      <point x="521" y="732"/>
      <point x="327" y="732" type="curve" smooth="yes"/>
      <point x="203" y="732"/>
      <point x="103" y="682"/>
      <point x="103" y="662" type="curve" smooth="yes"/>
      <point x="103" y="653"/>
      <point x="109" y="651"/>
      <point x="120" y="651" type="curve" smooth="yes"/>
      <point x="131" y="651"/>
      <point x="151" y="662"/>
      <point x="177" y="662" type="curve" smooth="yes"/>
      <point x="203" y="662"/>
      <point x="220" y="644"/>
      <point x="220" y="624" type="curve" smooth="yes"/>
      <point x="220" y="565"/>
      <point x="105" y="544"/>
      <point x="105" y="415" type="curve" smooth="yes"/>
      <point x="105" y="304"/>
      <point x="216" y="214"/>
      <point x="379" y="171" type="curve" smooth="yes"/>
      <point x="593" y="114"/>
      <point x="672" y="80"/>
      <point x="672" y="10" type="curve" smooth="yes"/>
      <point x="672" y="-16"/>
      <point x="661" y="-47"/>
      <point x="623" y="-47" type="curve" smooth="yes"/>
      <point x="585" y="-47"/>
      <point x="546" y="-8"/>
      <point x="546" y="58" type="curve"/>
      <point x="374" y="91" type="line"/>
      <point x="374" y="-81"/>
      <point x="467" y="-195"/>
    </contour>
    <contour>
      <point x="374" y="91" type="curve"/>
      <point x="546" y="58" type="line"/>
      <point x="546" y="136"/>
      <point x="643" y="184"/>
      <point x="759" y="184" type="curve" smooth="yes"/>
      <point x="860" y="184"/>
      <point x="903" y="158"/>
      <point x="1000" y="158" type="curve"/>
      <point x="1010" y="158" type="line"/>
      <point x="1010" y="442" type="line"/>
      <point x="1000" y="442" type="line" smooth="yes"/>
      <point x="963" y="442"/>
      <point x="969" y="441"/>
      <point x="935" y="441" type="curve" smooth="yes"/>
      <point x="901" y="441"/>
      <point x="883" y="449"/>
      <point x="812" y="449" type="curve" smooth="yes"/>
      <point x="561" y="449"/>
      <point x="374" y="243"/>
    </contour>
  </outline>
</glyph>
<glyph name="G" format="2">
  <advance width="1000"/>
  <unicode hex="0047"/>
  <outline>
    <contour>
      <point x="523" y="-26" type="curve" smooth="yes"/>
      <point x="677" y="-26"/>
      <point x="710" y="-10"/>
      <point x="736" y="21" type="curve" smooth="yes"/>
      <point x="822" y="125"/>
      <point x="881" y="158"/>
      <point x="1000" y="158" type="curve" smooth="yes"/>
      <point x="1010" y="158" type="line"/>
      <point x="1010" y="442" type="line"/>
      <point x="1000" y="442" type="line" smooth="yes"/>
      <point x="967" y="442"/>
      <point x="931" y="435"/>
      <point x="896" y="435" type="curve" smooth="yes"/>
      <point x="865" y="435"/>
      <point x="815" y="479"/>
      <point x="793" y="507" type="curve" smooth="yes"/>
      <point x="734" y="584"/>
      <point x="708" y="614"/>
      <point x="687" y="614" type="curve" smooth="yes"/>
      <point x="682" y="614"/>
      <point x="678" y="610"/>
      <point x="678" y="606" type="curve" smooth="yes"/>
      <point x="678" y="598"/>
      <point x="689" y="581"/>
      <point x="689" y="559" type="curve" smooth="yes"/>
      <point x="689" y="538"/>
      <point x="678" y="529"/>
      <point x="662" y="529" type="curve" smooth="yes"/>
      <point x="598" y="529"/>
      <point x="500" y="655"/>
      <point x="391" y="655" type="curve" smooth="yes"/>
      <point x="379" y="655"/>
      <point x="370" y="650"/>
      <point x="370" y="643" type="curve" smooth="yes"/>
      <point x="370" y="641"/>
      <point x="371" y="638"/>
      <point x="375" y="635" type="curve" smooth="yes"/>
      <point x="385" y="627"/>
      <point x="405" y="616"/>
      <point x="405" y="598" type="curve" smooth="yes"/>
      <point x="405" y="580"/>
      <point x="398" y="550"/>
      <point x="354" y="550" type="curve" smooth="yes"/>
      <point x="310" y="550"/>
      <point x="216" y="574"/>
      <point x="184" y="574" type="curve" smooth="yes"/>
      <point x="163" y="574"/>
      <point x="146" y="566"/>
      <point x="146" y="556" type="curve" smooth="yes"/>
      <point x="146" y="541"/>
      <point x="187" y="537"/>
      <point x="187" y="511" type="curve" smooth="yes"/>
      <point x="187" y="472"/>
      <point x="105" y="442"/>
      <point x="0" y="442" type="curve" smooth="yes"/>
      <point x="-10" y="442" type="line"/>
      <point x="-10" y="158" type="line"/>
      <point x="0" y="158" type="line" smooth="yes"/>
      <point x="48" y="158"/>
      <point x="64" y="97"/>
      <point x="115" y="77" type="curve" smooth="yes"/>
      <point x="155" y="62"/>
      <point x="204" y="67"/>
      <point x="243" y="49" type="curve" smooth="yes"/>
      <point x="268" y="37"/>
      <point x="299" y="20"/>
      <point x="341" y="5" type="curve" smooth="yes"/>
      <point x="387" y="-12"/>
      <point x="446" y="-26"/>
    </contour>
    <contour>
      <point x="534" y="-216" type="curve" smooth="yes"/>
      <point x="588" y="-216"/>
      <point x="592" y="-180"/>
      <point x="628" y="-180" type="curve" smooth="yes"/>
      <point x="664" y="-180"/>
      <point x="709" y="-207"/>
      <point x="732" y="-207" type="curve" smooth="yes"/>
      <point x="737" y="-207"/>
      <point x="741" y="-203"/>
      <point x="741" y="-197" type="curve" smooth="yes"/>
      <point x="741" y="-170"/>
      <point x="612" y="-104"/>
      <point x="564" y="-104" type="curve" smooth="yes"/>
      <point x="546" y="-104"/>
      <point x="546" y="-120"/>
      <point x="546" y="-129" type="curve" smooth="yes"/>
      <point x="546" y="-138"/>
      <point x="539" y="-148"/>
      <point x="511" y="-148" type="curve" smooth="yes"/>
      <point x="495" y="-148"/>
      <point x="480" y="-120"/>
      <point x="480" y="-85" type="curve" smooth="yes"/>
      <point x="480" y="-48"/>
      <point x="494" y="-51"/>
      <point x="514" y="-29" type="curve" smooth="yes"/>
      <point x="534" y="-7"/>
      <point x="554" y="44"/>
      <point x="579" y="62" type="curve"/>
      <point x="341" y="5" type="line"/>
      <point x="351" y="2"/>
      <point x="377" y="-8"/>
      <point x="377" y="-24" type="curve" smooth="yes"/>
      <point x="377" y="-31"/>
      <point x="373" y="-38"/>
      <point x="363" y="-46" type="curve" smooth="yes"/>
      <point x="326" y="-75"/>
      <point x="314" y="-87"/>
      <point x="310" y="-101" type="curve" smooth="yes"/>
      <point x="306" y="-115"/>
      <point x="313" y="-133"/>
      <point x="294" y="-142" type="curve" smooth="yes"/>
      <point x="275" y="-151"/>
      <point x="223" y="-165"/>
      <point x="223" y="-197" type="curve" smooth="yes"/>
      <point x="223" y="-201"/>
      <point x="227" y="-205"/>
      <point x="232" y="-205" type="curve" smooth="yes"/>
      <point x="244" y="-205"/>
      <point x="254" y="-192"/>
      <point x="275" y="-192" type="curve" smooth="yes"/>
      <point x="296" y="-192"/>
      <point x="306" y="-202"/>
      <point x="338" y="-202" type="curve" smooth="yes"/>
      <point x="370" y="-202"/>
      <point x="393" y="-188"/>
      <point x="428" y="-188" type="curve" smooth="yes"/>
      <point x="463" y="-188"/>
      <point x="480" y="-216"/>
    </contour>
  </outline>
</glyph>
<glyph name="H" format="2">
  <advance width="1000"/>
  <unicode hex="0048"/>
  <outline>
    <contour>
      <point x="502" y="-196" type="curve" smooth="yes"/>
      <point x="513" y="-196"/>
      <point x="521" y="-151"/>
      <point x="521" y="-131" type="curve" smooth="yes"/>
      <point x="521" y="-111"/>
      <point x="526" y="-94"/>
      <point x="536" y="-94" type="curve" smooth="yes"/>
      <point x="546" y="-94"/>
      <point x="548" y="-93"/>
      <point x="571" y="-104" type="curve" smooth="yes"/>
      <point x="594" y="-115"/>
      <point x="604" y="-140"/>
      <point x="651" y="-140" type="curve" smooth="yes"/>
      <point x="746" y="-140"/>
      <point x="788" y="-88"/>
      <point x="788" y="-33" type="curve" smooth="yes"/>
      <point x="788" y="-1"/>
      <point x="765" y="24"/>
      <point x="771" y="40" type="curve" smooth="yes"/>
      <point x="772" y="44"/>
      <point x="773" y="48"/>
      <point x="773" y="53" type="curve" smooth="yes"/>
      <point x="773" y="94"/>
      <point x="739" y="128"/>
      <point x="695" y="159" type="curve" smooth="yes"/>
      <point x="675" y="173"/>
      <point x="650" y="190"/>
      <point x="612" y="223" type="curve" smooth="yes"/>
      <point x="539" y="287"/>
      <point x="493" y="379"/>
      <point x="464" y="431" type="curve" smooth="yes"/>
      <point x="435" y="483"/>
      <point x="410" y="500"/>
      <point x="395" y="509" type="curve" smooth="yes"/>
      <point x="380" y="518"/>
      <point x="366" y="601"/>
      <point x="313" y="684" type="curve" smooth="yes"/>
      <point x="278" y="739"/>
      <point x="229" y="782"/>
      <point x="201" y="782" type="curve" smooth="yes"/>
      <point x="197" y="782"/>
      <point x="193" y="778"/>
      <point x="193" y="773" type="curve" smooth="yes"/>
      <point x="193" y="766"/>
      <point x="205" y="754"/>
      <point x="219" y="729" type="curve" smooth="yes"/>
      <point x="233" y="704"/>
      <point x="254" y="676"/>
      <point x="254" y="627" type="curve" smooth="yes"/>
      <point x="254" y="578"/>
      <point x="244" y="560"/>
      <point x="230" y="560" type="curve" smooth="yes"/>
      <point x="216" y="560"/>
      <point x="211" y="571"/>
      <point x="160" y="647" type="curve" smooth="yes"/>
      <point x="119" y="707"/>
      <point x="68" y="755"/>
      <point x="44" y="755" type="curve" smooth="yes"/>
      <point x="39" y="755"/>
      <point x="35" y="751"/>
      <point x="35" y="746" type="curve" smooth="yes"/>
      <point x="35" y="740"/>
      <point x="46" y="708"/>
      <point x="62" y="675" type="curve" smooth="yes"/>
      <point x="78" y="642"/>
      <point x="92" y="587"/>
      <point x="92" y="551" type="curve" smooth="yes"/>
      <point x="92" y="515"/>
      <point x="92" y="490"/>
      <point x="81" y="482" type="curve" smooth="yes"/>
      <point x="69" y="473"/>
      <point x="59" y="464"/>
      <point x="51" y="455" type="curve" smooth="yes"/>
      <point x="38" y="444"/>
      <point x="29" y="442"/>
      <point x="0" y="442" type="curve" smooth="yes"/>
      <point x="-10" y="442" type="line"/>
      <point x="-10" y="158" type="line"/>
      <point x="0" y="158" type="line" smooth="yes"/>
      <point x="51" y="158"/>
      <point x="77" y="147"/>
      <point x="95" y="131" type="curve" smooth="yes"/>
      <point x="117" y="113"/>
      <point x="125" y="89"/>
      <point x="146" y="68" type="curve" smooth="yes"/>
      <point x="184" y="30"/>
      <point x="296" y="18"/>
      <point x="326" y="14" type="curve" smooth="yes"/>
      <point x="356" y="10"/>
      <point x="383" y="-7"/>
      <point x="403" y="-26" type="curve" smooth="yes"/>
      <point x="413" y="-36"/>
      <point x="419" y="-55"/>
      <point x="423" y="-73" type="curve" smooth="yes"/>
      <point x="427" y="-91"/>
      <point x="428" y="-104"/>
      <point x="431" y="-104" type="curve" smooth="yes"/>
      <point x="433" y="-104"/>
      <point x="435" y="-100"/>
      <point x="438" y="-91" type="curve" smooth="yes"/>
      <point x="439" y="-87"/>
      <point x="441" y="-85"/>
      <point x="443" y="-85" type="curve" smooth="yes"/>
      <point x="447" y="-85"/>
      <point x="450" y="-91"/>
      <point x="453" y="-100" type="curve" smooth="yes"/>
      <point x="458" y="-116"/>
      <point x="467" y="-152"/>
      <point x="475" y="-152" type="curve" smooth="yes"/>
      <point x="483" y="-152"/>
      <point x="477" y="-120"/>
      <point x="482" y="-120" type="curve" smooth="yes"/>
      <point x="487" y="-120"/>
      <point x="497" y="-132"/>
      <point x="497" y="-158" type="curve" smooth="yes"/>
      <point x="497" y="-169"/>
      <point x="496" y="-178"/>
      <point x="496" y="-184" type="curve" smooth="yes"/>
      <point x="496" y="-192"/>
      <point x="497" y="-196"/>
    </contour>
    <contour>
      <point x="741" y="22" type="curve" smooth="yes"/>
      <point x="738" y="22"/>
      <point x="736" y="24"/>
      <point x="736" y="27" type="curve" smooth="yes"/>
      <point x="736" y="36"/>
      <point x="747" y="52"/>
      <point x="753" y="52" type="curve" smooth="yes"/>
      <point x="757" y="52"/>
      <point x="760" y="50"/>
      <point x="760" y="47" type="curve" smooth="yes"/>
      <point x="760" y="33"/>
      <point x="752" y="22"/>
    </contour>
    <contour>
      <point x="654" y="-1" type="curve" smooth="yes"/>
      <point x="640" y="-1"/>
      <point x="608" y="17"/>
      <point x="608" y="29" type="curve" smooth="yes"/>
      <point x="608" y="33"/>
      <point x="613" y="36"/>
      <point x="619" y="36" type="curve" smooth="yes"/>
      <point x="625" y="36"/>
      <point x="671" y="28"/>
      <point x="671" y="14" type="curve"/>
      <point x="671" y="8"/>
      <point x="668" y="-1"/>
    </contour>
    <contour>
      <point x="629" y="254" type="curve" smooth="yes"/>
      <point x="674" y="254"/>
      <point x="704" y="275"/>
      <point x="724" y="288" type="curve" smooth="yes"/>
      <point x="744" y="301"/>
      <point x="759" y="300"/>
      <point x="770" y="300" type="curve" smooth="yes"/>
      <point x="781" y="300"/>
      <point x="786" y="307"/>
      <point x="786" y="313" type="curve" smooth="yes"/>
      <point x="786" y="319"/>
      <point x="782" y="324"/>
      <point x="774" y="324" type="curve" smooth="yes"/>
      <point x="766" y="324"/>
      <point x="755" y="319"/>
      <point x="744" y="319" type="curve" smooth="yes"/>
      <point x="708" y="319"/>
      <point x="647" y="340"/>
      <point x="594" y="379" type="curve" smooth="yes"/>
      <point x="534" y="423"/>
      <point x="506" y="440"/>
      <point x="430" y="440" type="curve"/>
      <point x="451" y="304" type="line"/>
      <point x="534" y="304" type="line" smooth="yes"/>
      <point x="586" y="304"/>
      <point x="584" y="254"/>
    </contour>
    <contour>
      <point x="233" y="198" type="curve" smooth="yes"/>
      <point x="193" y="198"/>
      <point x="162" y="231"/>
      <point x="162" y="274" type="curve" smooth="yes"/>
      <point x="162" y="305"/>
      <point x="191" y="330"/>
      <point x="228" y="330" type="curve" smooth="yes"/>
      <point x="267" y="330"/>
      <point x="298" y="298"/>
      <point x="298" y="258" type="curve" smooth="yes"/>
      <point x="298" y="224"/>
      <point x="269" y="198"/>
    </contour>
    <contour>
      <point x="278" y="265" type="curve" smooth="yes"/>
      <point x="278" y="278"/>
      <point x="268" y="288"/>
      <point x="255" y="288" type="curve" smooth="yes"/>
      <point x="243" y="288"/>
      <point x="239" y="281"/>
      <point x="232" y="281" type="curve" smooth="yes"/>
      <point x="225" y="281"/>
      <point x="221" y="286"/>
      <point x="208" y="286" type="curve" smooth="yes"/>
      <point x="195" y="286"/>
      <point x="185" y="275"/>
      <point x="185" y="262" type="curve" smooth="yes"/>
      <point x="185" y="248"/>
      <point x="196" y="238"/>
      <point x="208" y="238" type="curve" smooth="yes"/>
      <point x="221" y="238"/>
      <point x="229" y="246"/>
      <point x="235" y="246" type="curve" smooth="yes"/>
      <point x="241" y="246"/>
      <point x="246" y="240"/>
      <point x="255" y="240" type="curve" smooth="yes"/>
      <point x="268" y="240"/>
      <point x="278" y="251"/>
    </contour>
    <contour>
      <point x="59" y="72" type="curve" smooth="yes"/>
      <point x="68" y="72"/>
      <point x="72" y="72"/>
      <point x="69" y="89" type="curve" smooth="yes"/>
      <point x="68" y="95"/>
      <point x="67" y="103"/>
      <point x="67" y="112" type="curve" smooth="yes"/>
      <point x="67" y="129"/>
      <point x="70" y="150"/>
      <point x="80" y="164" type="curve" smooth="yes"/>
      <point x="95" y="186"/>
      <point x="117" y="197"/>
      <point x="117" y="250" type="curve"/>
      <point x="7" y="221" type="line"/>
      <point x="8" y="162" type="line"/>
      <point x="12" y="162"/>
      <point x="15" y="163"/>
      <point x="17" y="163" type="curve" smooth="yes"/>
      <point x="20" y="163"/>
      <point x="21" y="161"/>
      <point x="23" y="149" type="curve" smooth="yes"/>
      <point x="26" y="131"/>
      <point x="50" y="72"/>
    </contour>
  </outline>
</glyph>
<glyph name="I" format="2">
  <advance width="1000"/>
  <unicode hex="0049"/>
  <outline>
    <contour>
      <point x="885" y="108" type="curve" smooth="yes"/>
      <point x="914" y="108"/>
      <point x="945" y="132"/>
      <point x="957" y="143" type="curve" smooth="yes"/>
      <point x="966" y="151"/>
      <point x="979" y="157"/>
      <point x="990" y="157" type="curve" smooth="yes"/>
      <point x="1005" y="157" type="line"/>
      <point x="1005" y="442" type="line"/>
      <point x="990" y="442" type="line" smooth="yes"/>
      <point x="981" y="442"/>
      <point x="942" y="467"/>
      <point x="942" y="513" type="curve" smooth="yes"/>
      <point x="942" y="535"/>
      <point x="950" y="558"/>
      <point x="950" y="577" type="curve" smooth="yes"/>
      <point x="950" y="602"/>
      <point x="797" y="767"/>
      <point x="488" y="767" type="curve" smooth="yes"/>
      <point x="395" y="767"/>
      <point x="329" y="739"/>
      <point x="320" y="733" type="curve" smooth="yes"/>
      <point x="317" y="731"/>
      <point x="316" y="728"/>
      <point x="316" y="727" type="curve" smooth="yes"/>
      <point x="316" y="724"/>
      <point x="321" y="723"/>
      <point x="328" y="723" type="curve" smooth="yes"/>
      <point x="333" y="723"/>
      <point x="339" y="725"/>
      <point x="347" y="725" type="curve" smooth="yes"/>
      <point x="355" y="725"/>
      <point x="368" y="722"/>
      <point x="390" y="710" type="curve" smooth="yes"/>
      <point x="438" y="684"/>
      <point x="531" y="635"/>
      <point x="589" y="617" type="curve"/>
      <point x="599" y="628" type="line"/>
      <point x="596" y="628"/>
      <point x="590" y="629"/>
      <point x="584" y="629" type="curve" smooth="yes"/>
      <point x="525" y="629"/>
      <point x="351" y="608"/>
      <point x="288" y="567" type="curve"/>
      <point x="284" y="565"/>
      <point x="283" y="563"/>
      <point x="283" y="561" type="curve" smooth="yes"/>
      <point x="283" y="559"/>
      <point x="286" y="557"/>
      <point x="290" y="557" type="curve" smooth="yes"/>
      <point x="298" y="557"/>
      <point x="350" y="556"/>
      <point x="382" y="548" type="curve" smooth="yes"/>
      <point x="414" y="540"/>
      <point x="514" y="509"/>
      <point x="541" y="509" type="curve"/>
      <point x="508" y="500"/>
      <point x="471" y="486"/>
      <point x="471" y="472" type="curve" smooth="yes"/>
      <point x="471" y="466"/>
      <point x="477" y="465"/>
      <point x="482" y="465" type="curve" smooth="yes"/>
      <point x="487" y="465"/>
      <point x="504" y="459"/>
      <point x="534" y="459" type="curve" smooth="yes"/>
      <point x="546" y="459"/>
      <point x="569" y="445"/>
      <point x="596" y="445" type="curve"/>
      <point x="568" y="438"/>
      <point x="561" y="434"/>
      <point x="561" y="430" type="curve" smooth="yes"/>
      <point x="561" y="426"/>
      <point x="584" y="416"/>
      <point x="613" y="411" type="curve"/>
      <point x="598" y="408"/>
      <point x="581" y="401"/>
      <point x="577" y="398" type="curve" smooth="yes"/>
      <point x="539" y="368"/>
      <point x="512" y="342"/>
      <point x="499" y="336" type="curve" smooth="yes"/>
      <point x="486" y="330"/>
      <point x="457" y="321"/>
      <point x="457" y="317" type="curve" smooth="yes"/>
      <point x="457" y="316"/>
      <point x="457" y="316"/>
      <point x="457" y="315" type="curve" smooth="yes"/>
      <point x="457" y="312"/>
      <point x="459" y="311"/>
      <point x="483" y="311" type="curve" smooth="yes"/>
      <point x="512" y="311"/>
      <point x="604" y="335"/>
      <point x="637" y="335" type="curve" smooth="yes"/>
      <point x="670" y="335"/>
      <point x="700" y="324"/>
      <point x="724" y="313" type="curve"/>
      <point x="700" y="306"/>
      <point x="672" y="285"/>
      <point x="658" y="270" type="curve" smooth="yes"/>
      <point x="644" y="255"/>
      <point x="610" y="209"/>
      <point x="599" y="200" type="curve" smooth="yes"/>
      <point x="588" y="191"/>
      <point x="578" y="187"/>
      <point x="578" y="184" type="curve" smooth="yes"/>
      <point x="578" y="181"/>
      <point x="578" y="178"/>
      <point x="582" y="178" type="curve" smooth="yes"/>
      <point x="583" y="178"/>
      <point x="584" y="178"/>
      <point x="586" y="178" type="curve" smooth="yes"/>
      <point x="590" y="178"/>
      <point x="596" y="179"/>
      <point x="614" y="189" type="curve" smooth="yes"/>
      <point x="641" y="204"/>
      <point x="682" y="216"/>
      <point x="700" y="216" type="curve" smooth="yes"/>
      <point x="709" y="216"/>
      <point x="724" y="216"/>
      <point x="739" y="216" type="curve" smooth="yes"/>
      <point x="753" y="216"/>
      <point x="768" y="216"/>
      <point x="778" y="217" type="curve" smooth="yes"/>
      <point x="797" y="219"/>
      <point x="825" y="228"/>
      <point x="847" y="239" type="curve"/>
      <point x="842" y="235"/>
      <point x="839" y="228"/>
      <point x="827" y="211" type="curve" smooth="yes"/>
      <point x="815" y="194"/>
      <point x="785" y="164"/>
      <point x="772" y="158" type="curve" smooth="yes"/>
      <point x="759" y="152"/>
      <point x="747" y="150"/>
      <point x="747" y="145" type="curve" smooth="yes"/>
      <point x="747" y="139"/>
      <point x="781" y="138"/>
      <point x="797" y="138" type="curve" smooth="yes"/>
      <point x="813" y="138"/>
      <point x="842" y="144"/>
      <point x="855" y="150" type="curve" smooth="yes"/>
      <point x="868" y="156"/>
      <point x="890" y="166"/>
      <point x="910" y="166" type="curve"/>
      <point x="904" y="161"/>
      <point x="892" y="127"/>
      <point x="887" y="122" type="curve" smooth="yes"/>
      <point x="884" y="119"/>
      <point x="879" y="118"/>
      <point x="876" y="118" type="curve" smooth="yes"/>
      <point x="874" y="118"/>
      <point x="873" y="117"/>
      <point x="873" y="115" type="curve" smooth="yes"/>
      <point x="873" y="112"/>
      <point x="876" y="108"/>
    </contour>
  </outline>
</glyph>
<glyph name="J" format="2">
  <advance width="1000"/>
  <unicode hex="004A"/>
  <outline>
    <contour>
      <point x="452" y="-53" type="curve" smooth="yes"/>
      <point x="504" y="-53"/>
      <point x="530" y="-23"/>
      <point x="537" y="-23" type="curve" smooth="yes"/>
      <point x="544" y="-23"/>
      <point x="557" y="-39"/>
      <point x="597" y="-39" type="curve" smooth="yes"/>
      <point x="637" y="-39"/>
      <point x="667" y="-13"/>
      <point x="679" y="4" type="curve" smooth="yes"/>
      <point x="691" y="21"/>
      <point x="700" y="26"/>
      <point x="711" y="26" type="curve" smooth="yes"/>
      <point x="722" y="26"/>
      <point x="739" y="11"/>
      <point x="775" y="11" type="curve" smooth="yes"/>
      <point x="811" y="11"/>
      <point x="822" y="13"/>
      <point x="847" y="29" type="curve" smooth="yes"/>
      <point x="872" y="45"/>
      <point x="885" y="65"/>
      <point x="910" y="107" type="curve" smooth="yes"/>
      <point x="935" y="149"/>
      <point x="960" y="157"/>
      <point x="990" y="157" type="curve"/>
      <point x="1010" y="157" type="line"/>
      <point x="1010" y="442" type="line"/>
      <point x="1000" y="442" type="line"/>
      <point x="967" y="442"/>
      <point x="947" y="465"/>
      <point x="927" y="495" type="curve" smooth="yes"/>
      <point x="907" y="525"/>
      <point x="875" y="540"/>
      <point x="838" y="540" type="curve" smooth="yes"/>
      <point x="810" y="540"/>
      <point x="790" y="527"/>
      <point x="779" y="527" type="curve" smooth="yes"/>
      <point x="776" y="527"/>
      <point x="773" y="529"/>
      <point x="771" y="532" type="curve" smooth="yes"/>
      <point x="769" y="536"/>
      <point x="768" y="540"/>
      <point x="768" y="545" type="curve" smooth="yes"/>
      <point x="768" y="560"/>
      <point x="775" y="582"/>
      <point x="775" y="603" type="curve" smooth="yes"/>
      <point x="775" y="655"/>
      <point x="748" y="685"/>
      <point x="740" y="685" type="curve" smooth="yes"/>
      <point x="733" y="685"/>
      <point x="736" y="677"/>
      <point x="736" y="672" type="curve" smooth="yes"/>
      <point x="736" y="667"/>
      <point x="728" y="625"/>
      <point x="718" y="625" type="curve"/>
      <point x="700" y="645"/>
      <point x="648" y="694"/>
      <point x="595" y="721" type="curve" smooth="yes"/>
      <point x="542" y="748"/>
      <point x="530" y="762"/>
      <point x="523" y="762" type="curve" smooth="yes"/>
      <point x="519" y="762"/>
      <point x="517" y="759"/>
      <point x="517" y="755" type="curve" smooth="yes"/>
      <point x="517" y="746"/>
      <point x="545" y="686"/>
      <point x="571" y="654" type="curve"/>
      <point x="519" y="678"/>
      <point x="486" y="687"/>
      <point x="448" y="691" type="curve" smooth="yes"/>
      <point x="410" y="695"/>
      <point x="394" y="694"/>
      <point x="372" y="703" type="curve" smooth="yes"/>
      <point x="370" y="704"/>
      <point x="367" y="705"/>
      <point x="363" y="705" type="curve" smooth="yes"/>
      <point x="359" y="705"/>
      <point x="355" y="703"/>
      <point x="355" y="698" type="curve" smooth="yes"/>
      <point x="355" y="695"/>
      <point x="357" y="692"/>
      <point x="362" y="687" type="curve" smooth="yes"/>
      <point x="378" y="671"/>
      <point x="408" y="641"/>
      <point x="441" y="623" type="curve"/>
      <point x="423" y="626"/>
      <point x="405" y="627"/>
      <point x="391" y="627" type="curve" smooth="yes"/>
      <point x="374" y="627"/>
      <point x="360" y="626"/>
      <point x="353" y="626" type="curve" smooth="yes"/>
      <point x="339" y="626"/>
      <point x="304" y="624"/>
      <point x="293" y="624" type="curve" smooth="yes"/>
      <point x="282" y="624"/>
      <point x="263" y="632"/>
      <point x="258" y="632" type="curve" smooth="yes"/>
      <point x="255" y="632"/>
      <point x="253" y="630"/>
      <point x="253" y="627" type="curve" smooth="yes"/>
      <point x="253" y="616"/>
      <point x="291" y="582"/>
      <point x="319" y="576" type="curve"/>
      <point x="300" y="569"/>
      <point x="274" y="560"/>
      <point x="252" y="555" type="curve" smooth="yes"/>
      <point x="230" y="550"/>
      <point x="206" y="549"/>
      <point x="200" y="548" type="curve" smooth="yes"/>
      <point x="194" y="547"/>
      <point x="190" y="546"/>
      <point x="190" y="543" type="curve" smooth="yes"/>
      <point x="190" y="540"/>
      <point x="194" y="538"/>
      <point x="204" y="535" type="curve" smooth="yes"/>
      <point x="214" y="532"/>
      <point x="259" y="523"/>
      <point x="266" y="516" type="curve"/>
      <point x="257" y="516"/>
      <point x="226" y="501"/>
      <point x="187" y="501" type="curve" smooth="yes"/>
      <point x="177" y="501"/>
      <point x="158" y="503"/>
      <point x="147" y="503" type="curve" smooth="yes"/>
      <point x="136" y="503"/>
      <point x="135" y="500"/>
      <point x="135" y="497" type="curve" smooth="yes"/>
      <point x="135" y="494"/>
      <point x="138" y="491"/>
      <point x="140" y="489" type="curve" smooth="yes"/>
      <point x="142" y="487"/>
      <point x="147" y="484"/>
      <point x="150" y="478" type="curve"/>
      <point x="128" y="477"/>
      <point x="57" y="442"/>
      <point x="0" y="442" type="curve"/>
      <point x="-10" y="442" type="line"/>
      <point x="-10" y="157" type="line"/>
      <point x="0" y="157" type="line"/>
      <point x="21" y="157"/>
      <point x="39" y="102"/>
      <point x="66" y="65" type="curve" smooth="yes"/>
      <point x="93" y="28"/>
      <point x="148" y="-6"/>
      <point x="185" y="-6" type="curve" smooth="yes"/>
      <point x="222" y="-6"/>
      <point x="226" y="1"/>
      <point x="236" y="1" type="curve" smooth="yes"/>
      <point x="246" y="1"/>
      <point x="263" y="-8"/>
      <point x="285" y="-12" type="curve" smooth="yes"/>
      <point x="307" y="-16"/>
      <point x="314" y="-10"/>
      <point x="347" y="-27" type="curve" smooth="yes"/>
      <point x="380" y="-44"/>
      <point x="400" y="-53"/>
    </contour>
    <contour>
      <point x="623" y="-214" type="curve" smooth="yes"/>
      <point x="631" y="-214"/>
      <point x="635" y="-210"/>
      <point x="635" y="-206" type="curve" smooth="yes"/>
      <point x="635" y="-203"/>
      <point x="632" y="-200"/>
      <point x="626" y="-200" type="curve" smooth="yes"/>
      <point x="621" y="-200"/>
      <point x="596" y="-197"/>
      <point x="560" y="-178" type="curve"/>
      <point x="568" y="-179"/>
      <point x="579" y="-179"/>
      <point x="589" y="-179" type="curve" smooth="yes"/>
      <point x="627" y="-179"/>
      <point x="673" y="-175"/>
      <point x="684" y="-175" type="curve" smooth="yes"/>
      <point x="688" y="-175"/>
      <point x="691" y="-171"/>
      <point x="691" y="-168" type="curve" smooth="yes"/>
      <point x="691" y="-164"/>
      <point x="688" y="-160"/>
      <point x="684" y="-160" type="curve" smooth="yes"/>
      <point x="663" y="-160" type="line"/>
      <point x="644" y="-160"/>
      <point x="619" y="-152"/>
      <point x="581" y="-142" type="curve"/>
      <point x="600" y="-137"/>
      <point x="643" y="-130"/>
      <point x="655" y="-130" type="curve" smooth="yes"/>
      <point x="659" y="-130"/>
      <point x="661" y="-127"/>
      <point x="661" y="-124" type="curve" smooth="yes"/>
      <point x="661" y="-121"/>
      <point x="659" y="-118"/>
      <point x="655" y="-118" type="curve" smooth="yes"/>
      <point x="626" y="-118" type="line" smooth="yes"/>
      <point x="605" y="-118"/>
      <point x="496" y="-108"/>
      <point x="489" y="-108" type="curve" smooth="yes"/>
      <point x="482" y="-108"/>
      <point x="475" y="-101"/>
      <point x="475" y="-86" type="curve" smooth="yes"/>
      <point x="475" y="-71"/>
      <point x="476" y="-40"/>
      <point x="483" y="-16" type="curve"/>
      <point x="390" y="-33" type="line"/>
      <point x="409" y="-59"/>
      <point x="426" y="-122"/>
      <point x="426" y="-133" type="curve" smooth="yes"/>
      <point x="426" y="-144"/>
      <point x="405" y="-151"/>
      <point x="388" y="-159" type="curve" smooth="yes"/>
      <point x="371" y="-167"/>
      <point x="369" y="-173"/>
      <point x="369" y="-176" type="curve" smooth="yes"/>
      <point x="369" y="-179"/>
      <point x="374" y="-180"/>
      <point x="381" y="-180" type="curve" smooth="yes"/>
      <point x="388" y="-180"/>
      <point x="407" y="-178"/>
      <point x="433" y="-178" type="curve" smooth="yes"/>
      <point x="459" y="-178"/>
      <point x="510" y="-199"/>
      <point x="547" y="-208" type="curve" smooth="yes"/>
      <point x="571" y="-214"/>
      <point x="614" y="-214"/>
    </contour>
  </outline>
</glyph>
<glyph name="K" format="2">
  <advance width="1000"/>
  <unicode hex="004B"/>
  <outline>
    <contour>
      <point x="184" y="-87" type="curve" smooth="yes"/>
      <point x="215" y="-87"/>
      <point x="230" y="-70"/>
      <point x="230" y="-45" type="curve" smooth="yes"/>
      <point x="230" y="-36"/>
      <point x="226" y="-25"/>
      <point x="223" y="-14" type="curve" smooth="yes"/>
      <point x="221" y="-7"/>
      <point x="222" y="-3"/>
      <point x="225" y="-3" type="curve" smooth="yes"/>
      <point x="227" y="-3"/>
      <point x="230" y="-4"/>
      <point x="233" y="-10" type="curve" smooth="yes"/>
      <point x="238" y="-19"/>
      <point x="249" y="-34"/>
      <point x="281" y="-34" type="curve" smooth="yes"/>
      <point x="325" y="-34"/>
      <point x="323" y="5"/>
      <point x="326" y="13" type="curve" smooth="yes"/>
      <point x="329" y="21"/>
      <point x="340" y="33"/>
      <point x="340" y="44" type="curve" smooth="yes"/>
      <point x="340" y="55"/>
      <point x="321" y="67"/>
      <point x="321" y="92" type="curve" smooth="yes"/>
      <point x="321" y="117"/>
      <point x="337" y="137"/>
      <point x="372" y="137" type="curve" smooth="yes"/>
      <point x="407" y="137"/>
      <point x="451" y="79"/>
      <point x="569" y="79" type="curve" smooth="yes"/>
      <point x="592" y="79"/>
      <point x="601" y="85"/>
      <point x="601" y="91" type="curve" smooth="yes"/>
      <point x="601" y="97"/>
      <point x="584" y="101"/>
      <point x="565" y="109" type="curve" smooth="yes"/>
      <point x="546" y="117"/>
      <point x="505" y="143"/>
      <point x="492" y="154" type="curve" smooth="yes"/>
      <point x="479" y="165"/>
      <point x="471" y="174"/>
      <point x="471" y="178" type="curve" smooth="yes"/>
      <point x="471" y="180"/>
      <point x="472" y="181"/>
      <point x="475" y="181" type="curve" smooth="yes"/>
      <point x="478" y="181"/>
      <point x="484" y="179"/>
      <point x="491" y="177" type="curve" smooth="yes"/>
      <point x="504" y="173"/>
      <point x="537" y="159"/>
      <point x="551" y="152" type="curve" smooth="yes"/>
      <point x="555" y="150"/>
      <point x="558" y="149"/>
      <point x="561" y="149" type="curve" smooth="yes"/>
      <point x="564" y="149"/>
      <point x="566" y="151"/>
      <point x="566" y="154" type="curve" smooth="yes"/>
      <point x="566" y="160"/>
      <point x="560" y="164"/>
      <point x="552" y="171" type="curve" smooth="yes"/>
      <point x="544" y="178"/>
      <point x="534" y="194"/>
      <point x="523" y="197" type="curve" smooth="yes"/>
      <point x="512" y="200"/>
      <point x="496" y="207"/>
      <point x="491" y="211" type="curve" smooth="yes"/>
      <point x="486" y="215"/>
      <point x="477" y="223"/>
      <point x="477" y="228" type="curve" smooth="yes"/>
      <point x="477" y="231"/>
      <point x="477" y="231"/>
      <point x="479" y="231" type="curve" smooth="yes"/>
      <point x="481" y="231"/>
      <point x="501" y="216"/>
      <point x="530" y="212" type="curve" smooth="yes"/>
      <point x="544" y="210"/>
      <point x="554" y="209"/>
      <point x="564" y="208" type="curve" smooth="yes"/>
      <point x="578" y="207"/>
      <point x="589" y="206"/>
      <point x="602" y="202" type="curve" smooth="yes"/>
      <point x="633" y="193"/>
      <point x="647" y="156"/>
      <point x="656" y="156" type="curve" smooth="yes"/>
      <point x="659" y="156"/>
      <point x="661" y="158"/>
      <point x="661" y="162" type="curve" smooth="yes"/>
      <point x="661" y="196"/>
      <point x="640" y="230"/>
      <point x="618" y="245" type="curve" smooth="yes"/>
      <point x="596" y="260"/>
      <point x="537" y="282"/>
      <point x="522" y="291" type="curve" smooth="yes"/>
      <point x="507" y="300"/>
      <point x="500" y="310"/>
      <point x="498" y="321" type="curve" smooth="yes"/>
      <point x="496" y="332"/>
      <point x="489" y="361"/>
      <point x="477" y="373" type="curve" smooth="yes"/>
      <point x="465" y="385"/>
      <point x="451" y="392"/>
      <point x="422" y="397" type="curve" smooth="yes"/>
      <point x="411" y="399"/>
      <point x="393" y="412"/>
      <point x="393" y="420" type="curve" smooth="yes"/>
      <point x="393" y="424"/>
      <point x="399" y="426"/>
      <point x="399" y="439" type="curve" smooth="yes"/>
      <point x="399" y="452"/>
      <point x="394" y="458"/>
      <point x="389" y="463" type="curve" smooth="yes"/>
      <point x="382" y="470"/>
      <point x="363" y="476"/>
      <point x="363" y="486" type="curve" smooth="yes"/>
      <point x="363" y="500"/>
      <point x="388" y="525"/>
      <point x="398" y="546" type="curve" smooth="yes"/>
      <point x="406" y="563"/>
      <point x="411" y="590"/>
      <point x="411" y="595" type="curve" smooth="yes"/>
      <point x="411" y="600"/>
      <point x="410" y="606"/>
      <point x="404" y="606" type="curve" smooth="yes"/>
      <point x="398" y="606"/>
      <point x="393" y="595"/>
      <point x="389" y="589" type="curve" smooth="yes"/>
      <point x="385" y="583"/>
      <point x="379" y="578"/>
      <point x="370" y="578" type="curve" smooth="yes"/>
      <point x="354" y="578"/>
      <point x="338" y="628"/>
      <point x="330" y="662" type="curve" smooth="yes"/>
      <point x="322" y="696"/>
      <point x="302" y="734"/>
      <point x="291" y="749" type="curve" smooth="yes"/>
      <point x="280" y="764"/>
      <point x="270" y="768"/>
      <point x="265" y="768" type="curve" smooth="yes"/>
      <point x="260" y="768"/>
      <point x="258" y="765"/>
      <point x="258" y="762" type="curve" smooth="yes"/>
      <point x="258" y="759"/>
      <point x="260" y="757"/>
      <point x="261" y="756" type="curve" smooth="yes"/>
      <point x="262" y="755"/>
      <point x="269" y="745"/>
      <point x="269" y="735" type="curve" smooth="yes"/>
      <point x="269" y="725"/>
      <point x="263" y="719"/>
      <point x="260" y="712" type="curve" smooth="yes"/>
      <point x="259" y="710"/>
      <point x="259" y="707"/>
      <point x="259" y="705" type="curve" smooth="yes"/>
      <point x="259" y="701"/>
      <point x="260" y="696"/>
      <point x="260" y="693" type="curve" smooth="yes"/>
      <point x="260" y="688"/>
      <point x="260" y="681"/>
      <point x="248" y="678" type="curve" smooth="yes"/>
      <point x="235" y="675"/>
      <point x="223" y="669"/>
      <point x="216" y="662" type="curve" smooth="yes"/>
      <point x="209" y="655"/>
      <point x="204" y="644"/>
      <point x="202" y="639" type="curve" smooth="yes"/>
      <point x="200" y="634"/>
      <point x="194" y="626"/>
      <point x="186" y="626" type="curve" smooth="yes"/>
      <point x="178" y="626"/>
      <point x="172" y="629"/>
      <point x="163" y="641" type="curve" smooth="yes"/>
      <point x="150" y="658"/>
      <point x="132" y="686"/>
      <point x="126" y="693" type="curve" smooth="yes"/>
      <point x="118" y="703"/>
      <point x="111" y="709"/>
      <point x="105" y="709" type="curve" smooth="yes"/>
      <point x="99" y="709"/>
      <point x="97" y="702"/>
      <point x="97" y="699" type="curve" smooth="yes"/>
      <point x="97" y="696"/>
      <point x="100" y="689"/>
      <point x="103" y="684" type="curve" smooth="yes"/>
      <point x="106" y="679"/>
      <point x="110" y="662"/>
      <point x="110" y="649" type="curve" smooth="yes"/>
      <point x="110" y="636"/>
      <point x="102" y="627"/>
      <point x="95" y="620" type="curve" smooth="yes"/>
      <point x="88" y="613"/>
      <point x="84" y="608"/>
      <point x="84" y="599" type="curve" smooth="yes"/>
      <point x="84" y="590"/>
      <point x="88" y="583"/>
      <point x="91" y="579" type="curve" smooth="yes"/>
      <point x="94" y="575"/>
      <point x="97" y="570"/>
      <point x="97" y="564" type="curve" smooth="yes"/>
      <point x="97" y="555"/>
      <point x="88" y="554"/>
      <point x="78" y="554" type="curve" smooth="yes"/>
      <point x="68" y="554"/>
      <point x="58" y="563"/>
      <point x="48" y="563" type="curve" smooth="yes"/>
      <point x="45" y="563"/>
      <point x="42" y="561"/>
      <point x="42" y="557" type="curve" smooth="yes"/>
      <point x="42" y="555"/>
      <point x="43" y="552"/>
      <point x="46" y="549" type="curve" smooth="yes"/>
      <point x="49" y="546"/>
      <point x="56" y="539"/>
      <point x="59" y="534" type="curve" smooth="yes"/>
      <point x="62" y="529"/>
      <point x="62" y="519"/>
      <point x="62" y="511" type="curve" smooth="yes"/>
      <point x="62" y="503"/>
      <point x="65" y="500"/>
      <point x="73" y="494" type="curve" smooth="yes"/>
      <point x="78" y="490"/>
      <point x="91" y="483"/>
      <point x="91" y="474" type="curve" smooth="yes"/>
      <point x="91" y="465"/>
      <point x="84" y="456"/>
      <point x="74" y="450" type="curve" smooth="yes"/>
      <point x="66" y="445"/>
      <point x="44" y="442"/>
      <point x="10" y="442" type="curve" smooth="yes"/>
      <point x="-9" y="442" type="line"/>
      <point x="-9" y="157" type="line"/>
      <point x="10" y="157" type="line" smooth="yes"/>
      <point x="39" y="157"/>
      <point x="60" y="137"/>
      <point x="65" y="132" type="curve" smooth="yes"/>
      <point x="71" y="126"/>
      <point x="80" y="125"/>
      <point x="88" y="121" type="curve" smooth="yes"/>
      <point x="96" y="117"/>
      <point x="105" y="112"/>
      <point x="105" y="101" type="curve" smooth="yes"/>
      <point x="105" y="83"/>
      <point x="94" y="76"/>
      <point x="86" y="63" type="curve" smooth="yes"/>
      <point x="78" y="50"/>
      <point x="66" y="23"/>
      <point x="66" y="8" type="curve" smooth="yes"/>
      <point x="66" y="-7"/>
      <point x="71" y="-15"/>
      <point x="82" y="-21" type="curve" smooth="yes"/>
      <point x="93" y="-27"/>
      <point x="97" y="-38"/>
      <point x="107" y="-48" type="curve" smooth="yes"/>
      <point x="117" y="-58"/>
      <point x="134" y="-58"/>
      <point x="144" y="-63" type="curve" smooth="yes"/>
      <point x="154" y="-68"/>
      <point x="159" y="-87"/>
    </contour>
    <contour>
      <point x="248" y="295" type="curve" smooth="yes"/>
      <point x="192" y="295"/>
      <point x="171" y="335"/>
      <point x="171" y="368" type="curve" smooth="yes"/>
      <point x="171" y="407"/>
      <point x="207" y="441"/>
      <point x="249" y="441" type="curve"/>
      <point x="265" y="441"/>
      <point x="326" y="430"/>
      <point x="326" y="373" type="curve" smooth="yes"/>
      <point x="326" y="318"/>
      <point x="283" y="295"/>
    </contour>
    <contour>
      <point x="248" y="329" type="curve" smooth="yes"/>
      <point x="271" y="329"/>
      <point x="288" y="346"/>
      <point x="288" y="366" type="curve" smooth="yes"/>
      <point x="288" y="393"/>
      <point x="268" y="407"/>
      <point x="248" y="407" type="curve" smooth="yes"/>
      <point x="228" y="407"/>
      <point x="209" y="393"/>
      <point x="209" y="366" type="curve" smooth="yes"/>
      <point x="209" y="347"/>
      <point x="225" y="329"/>
    </contour>
  </outline>
</glyph>
<glyph name="L" format="2">
  <advance width="1000"/>
  <unicode hex="004C"/>
  <outline>
    <contour>
      <point x="208" y="5" type="curve" smooth="yes"/>
      <point x="256" y="5"/>
      <point x="330" y="21"/>
      <point x="430" y="75" type="curve" smooth="yes"/>
      <point x="521" y="124"/>
      <point x="604" y="198"/>
      <point x="664" y="198" type="curve" smooth="yes"/>
      <point x="684" y="198"/>
      <point x="696" y="190"/>
      <point x="696" y="176" type="curve" smooth="yes"/>
      <point x="696" y="150"/>
      <point x="651" y="131"/>
      <point x="651" y="123" type="curve" smooth="yes"/>
      <point x="651" y="119"/>
      <point x="657" y="116"/>
      <point x="670" y="116" type="curve" smooth="yes"/>
      <point x="709" y="116"/>
      <point x="823" y="162"/>
      <point x="848" y="162" type="curve" smooth="yes"/>
      <point x="873" y="162"/>
      <point x="893" y="158"/>
      <point x="990" y="158" type="curve" smooth="yes"/>
      <point x="1010" y="158" type="line"/>
      <point x="1010" y="442" type="line"/>
      <point x="990" y="442" type="line" smooth="yes"/>
      <point x="945" y="442"/>
      <point x="918" y="425"/>
      <point x="890" y="425" type="curve" smooth="yes"/>
      <point x="841" y="425"/>
      <point x="720" y="505"/>
      <point x="658" y="505" type="curve" smooth="yes"/>
      <point x="653" y="505"/>
      <point x="651" y="502"/>
      <point x="651" y="498" type="curve" smooth="yes"/>
      <point x="651" y="482"/>
      <point x="719" y="438"/>
      <point x="719" y="404" type="curve" smooth="yes"/>
      <point x="719" y="380"/>
      <point x="692" y="377"/>
      <point x="651" y="377" type="curve" smooth="yes"/>
      <point x="561" y="377"/>
      <point x="277" y="478"/>
      <point x="194" y="478" type="curve" smooth="yes"/>
      <point x="183" y="478"/>
      <point x="172" y="474"/>
      <point x="172" y="468" type="curve" smooth="yes"/>
      <point x="172" y="458"/>
      <point x="218" y="428"/>
      <point x="263" y="386" type="curve" smooth="yes"/>
      <point x="307" y="345"/>
      <point x="350" y="282"/>
      <point x="350" y="248" type="curve" smooth="yes"/>
      <point x="350" y="231"/>
      <point x="339" y="209"/>
      <point x="320" y="178" type="curve" smooth="yes"/>
      <point x="285" y="120"/>
      <point x="187" y="31"/>
      <point x="187" y="22" type="curve" smooth="yes"/>
      <point x="187" y="14"/>
      <point x="193" y="5"/>
    </contour>
  </outline>
</glyph>
<glyph name="M" format="2">
  <advance width="1000"/>
  <unicode hex="004D"/>
  <outline>
    <contour>
      <point x="496" y="-179" type="curve" smooth="yes"/>
      <point x="753" y="-179"/>
      <point x="876" y="14"/>
      <point x="890" y="77" type="curve" smooth="yes"/>
      <point x="898" y="113"/>
      <point x="921" y="161"/>
      <point x="942" y="161" type="curve" smooth="yes"/>
      <point x="961" y="161"/>
      <point x="980" y="158"/>
      <point x="1000" y="158" type="curve" smooth="yes"/>
      <point x="1010" y="158" type="line"/>
      <point x="1010" y="442" type="line"/>
      <point x="1000" y="442" type="line" smooth="yes"/>
      <point x="915" y="442"/>
      <point x="813" y="477"/>
      <point x="752" y="477" type="curve"/>
      <point x="718" y="502"/>
      <point x="681" y="512"/>
      <point x="661" y="536" type="curve" smooth="yes"/>
      <point x="637" y="566"/>
      <point x="407" y="792"/>
      <point x="326" y="792" type="curve" smooth="yes"/>
      <point x="297" y="792"/>
      <point x="292" y="763"/>
      <point x="292" y="744" type="curve" smooth="yes"/>
      <point x="292" y="676"/>
      <point x="313" y="637"/>
      <point x="313" y="584" type="curve" smooth="yes"/>
      <point x="313" y="543"/>
      <point x="274" y="502"/>
      <point x="244" y="491" type="curve" smooth="yes"/>
      <point x="214" y="480"/>
      <point x="47" y="442"/>
      <point x="19" y="442" type="curve" smooth="yes"/>
      <point x="-10" y="442" type="line"/>
      <point x="-10" y="158" type="line"/>
      <point x="11" y="158" type="line"/>
      <point x="43" y="158"/>
      <point x="70" y="126"/>
      <point x="70" y="94" type="curve" smooth="yes"/>
      <point x="70" y="56"/>
      <point x="34" y="43"/>
      <point x="34" y="34" type="curve" smooth="yes"/>
      <point x="34" y="28"/>
      <point x="38" y="22"/>
      <point x="54" y="22" type="curve" smooth="yes"/>
      <point x="99" y="22"/>
      <point x="206" y="102"/>
      <point x="239" y="102" type="curve" smooth="yes"/>
      <point x="272" y="102"/>
      <point x="307" y="84"/>
      <point x="437" y="84" type="curve" smooth="yes"/>
      <point x="486" y="84"/>
      <point x="515" y="94"/>
      <point x="548" y="94" type="curve" smooth="yes"/>
      <point x="581" y="94"/>
      <point x="607" y="80"/>
      <point x="607" y="57" type="curve" smooth="yes"/>
      <point x="607" y="17"/>
      <point x="579" y="12"/>
      <point x="579" y="-2" type="curve" smooth="yes"/>
      <point x="579" y="-15"/>
      <point x="593" y="-15"/>
      <point x="593" y="-27" type="curve" smooth="yes"/>
      <point x="593" y="-48"/>
      <point x="553" y="-57"/>
      <point x="543" y="-61" type="curve" smooth="yes"/>
      <point x="525" y="-68"/>
      <point x="527" y="-84"/>
      <point x="524" y="-104" type="curve" smooth="yes"/>
      <point x="522" y="-118"/>
      <point x="507" y="-131"/>
      <point x="496" y="-139" type="curve" smooth="yes"/>
      <point x="474" y="-155"/>
      <point x="455" y="-162"/>
      <point x="432" y="-166" type="curve" smooth="yes"/>
      <point x="427" y="-167"/>
      <point x="425" y="-170"/>
      <point x="425" y="-172" type="curve" smooth="yes"/>
      <point x="425" y="-176"/>
      <point x="443" y="-179"/>
    </contour>
    <contour>
      <point x="910" y="206" type="curve"/>
      <point x="910" y="192"/>
      <point x="899" y="223"/>
      <point x="884" y="239" type="curve" smooth="yes"/>
      <point x="869" y="255"/>
      <point x="854" y="267"/>
      <point x="854" y="288" type="curve" smooth="yes"/>
      <point x="854" y="309"/>
      <point x="864" y="323"/>
      <point x="876" y="334" type="curve" smooth="yes"/>
      <point x="888" y="345"/>
      <point x="904" y="371"/>
      <point x="908" y="381" type="curve" smooth="yes"/>
      <point x="910" y="386"/>
      <point x="912" y="389"/>
      <point x="914" y="389" type="curve" smooth="yes"/>
      <point x="915" y="389"/>
      <point x="916" y="387"/>
      <point x="916" y="381" type="curve" smooth="yes"/>
      <point x="916" y="354"/>
      <point x="892" y="314"/>
      <point x="892" y="292" type="curve" smooth="yes"/>
      <point x="892" y="265"/>
      <point x="910" y="244"/>
    </contour>
    <contour>
      <point x="842" y="206" type="curve"/>
      <point x="842" y="192"/>
      <point x="829" y="223"/>
      <point x="814" y="239" type="curve" smooth="yes"/>
      <point x="799" y="255"/>
      <point x="784" y="267"/>
      <point x="784" y="288" type="curve" smooth="yes"/>
      <point x="784" y="309"/>
      <point x="794" y="323"/>
      <point x="806" y="334" type="curve" smooth="yes"/>
      <point x="818" y="345"/>
      <point x="844" y="371"/>
      <point x="848" y="381" type="curve" smooth="yes"/>
      <point x="850" y="386"/>
      <point x="852" y="389"/>
      <point x="854" y="389" type="curve" smooth="yes"/>
      <point x="855" y="389"/>
      <point x="856" y="387"/>
      <point x="856" y="381" type="curve" smooth="yes"/>
      <point x="856" y="354"/>
      <point x="822" y="314"/>
      <point x="822" y="292" type="curve" smooth="yes"/>
      <point x="822" y="255"/>
      <point x="842" y="244"/>
    </contour>
    <contour>
      <point x="780" y="206" type="curve"/>
      <point x="780" y="192"/>
      <point x="759" y="223"/>
      <point x="744" y="239" type="curve" smooth="yes"/>
      <point x="729" y="255"/>
      <point x="714" y="267"/>
      <point x="714" y="288" type="curve" smooth="yes"/>
      <point x="714" y="309"/>
      <point x="724" y="323"/>
      <point x="736" y="334" type="curve" smooth="yes"/>
      <point x="748" y="345"/>
      <point x="774" y="371"/>
      <point x="778" y="381" type="curve" smooth="yes"/>
      <point x="780" y="386"/>
      <point x="782" y="389"/>
      <point x="784" y="389" type="curve" smooth="yes"/>
      <point x="785" y="389"/>
      <point x="786" y="387"/>
      <point x="786" y="381" type="curve" smooth="yes"/>
      <point x="786" y="354"/>
      <point x="752" y="314"/>
      <point x="752" y="292" type="curve" smooth="yes"/>
      <point x="752" y="255"/>
      <point x="780" y="234"/>
    </contour>
    <contour>
      <point x="720" y="206" type="curve"/>
      <point x="720" y="192"/>
      <point x="704" y="223"/>
      <point x="679" y="239" type="curve" smooth="yes"/>
      <point x="661" y="251"/>
      <point x="644" y="267"/>
      <point x="644" y="288" type="curve" smooth="yes"/>
      <point x="644" y="309"/>
      <point x="659" y="323"/>
      <point x="671" y="334" type="curve" smooth="yes"/>
      <point x="683" y="345"/>
      <point x="714" y="371"/>
      <point x="718" y="381" type="curve" smooth="yes"/>
      <point x="720" y="386"/>
      <point x="722" y="389"/>
      <point x="724" y="389" type="curve" smooth="yes"/>
      <point x="725" y="389"/>
      <point x="726" y="387"/>
      <point x="726" y="381" type="curve" smooth="yes"/>
      <point x="726" y="354"/>
      <point x="682" y="324"/>
      <point x="682" y="292" type="curve" smooth="yes"/>
      <point x="682" y="255"/>
      <point x="720" y="234"/>
    </contour>
  </outline>
</glyph>
<glyph name="N" format="2">
  <advance width="1000"/>
  <unicode hex="004E"/>
  <outline>
    <contour>
      <point x="554" y="-32" type="curve" smooth="yes"/>
      <point x="583" y="-32"/>
      <point x="634" y="-23"/>
      <point x="687" y="30" type="curve" smooth="yes"/>
      <point x="704" y="47"/>
      <point x="710" y="56"/>
      <point x="710" y="59" type="curve" smooth="yes"/>
      <point x="710" y="67"/>
      <point x="681" y="51"/>
      <point x="663" y="39" type="curve" smooth="yes"/>
      <point x="638" y="22"/>
      <point x="617" y="13"/>
      <point x="607" y="13" type="curve" smooth="yes"/>
      <point x="602" y="13"/>
      <point x="598" y="16"/>
      <point x="598" y="23" type="curve" smooth="yes"/>
      <point x="598" y="29"/>
      <point x="601" y="39"/>
      <point x="608" y="55" type="curve" smooth="yes"/>
      <point x="611" y="61"/>
      <point x="612" y="65"/>
      <point x="612" y="68" type="curve" smooth="yes"/>
      <point x="612" y="78"/>
      <point x="592" y="61"/>
      <point x="574" y="44" type="curve" smooth="yes"/>
      <point x="560" y="31"/>
      <point x="549" y="26"/>
      <point x="539" y="26" type="curve" smooth="yes"/>
      <point x="533" y="26"/>
      <point x="528" y="28"/>
      <point x="522" y="30" type="curve" smooth="yes"/>
      <point x="515" y="33"/>
      <point x="511" y="38"/>
      <point x="511" y="46" type="curve" smooth="yes"/>
      <point x="511" y="55"/>
      <point x="515" y="67"/>
      <point x="523" y="85" type="curve" smooth="yes"/>
      <point x="527" y="95"/>
      <point x="530" y="102"/>
      <point x="530" y="106" type="curve" smooth="yes"/>
      <point x="530" y="118"/>
      <point x="515" y="111"/>
      <point x="488" y="78" type="curve" smooth="yes"/>
      <point x="476" y="63"/>
      <point x="466" y="55"/>
      <point x="453" y="55" type="curve" smooth="yes"/>
      <point x="445" y="55"/>
      <point x="435" y="59"/>
      <point x="423" y="65" type="curve" smooth="yes"/>
      <point x="410" y="72"/>
      <point x="405" y="78"/>
      <point x="405" y="86" type="curve" smooth="yes"/>
      <point x="405" y="97"/>
      <point x="414" y="109"/>
      <point x="425" y="127" type="curve" smooth="yes"/>
      <point x="430" y="134"/>
      <point x="432" y="139"/>
      <point x="432" y="142" type="curve" smooth="yes"/>
      <point x="432" y="151"/>
      <point x="411" y="139"/>
      <point x="387" y="118" type="curve" smooth="yes"/>
      <point x="374" y="107"/>
      <point x="364" y="104"/>
      <point x="355" y="104" type="curve" smooth="yes"/>
      <point x="342" y="104"/>
      <point x="332" y="112"/>
      <point x="322" y="119" type="curve" smooth="yes"/>
      <point x="311" y="126"/>
      <point x="303" y="130"/>
      <point x="303" y="140" type="curve" smooth="yes"/>
      <point x="303" y="146"/>
      <point x="305" y="152"/>
      <point x="310" y="162" type="curve" smooth="yes"/>
      <point x="317" y="176"/>
      <point x="320" y="183"/>
      <point x="320" y="186" type="curve" smooth="yes"/>
      <point x="320" y="187"/>
      <point x="319" y="188"/>
      <point x="319" y="188" type="curve" smooth="yes"/>
      <point x="314" y="188"/>
      <point x="302" y="175"/>
      <point x="298" y="170" type="curve" smooth="yes"/>
      <point x="291" y="162"/>
      <point x="281" y="164"/>
      <point x="269" y="164" type="curve" smooth="yes"/>
      <point x="257" y="164"/>
      <point x="240" y="190"/>
      <point x="240" y="206" type="curve" smooth="yes"/>
      <point x="240" y="222"/>
      <point x="247" y="233"/>
      <point x="279" y="256" type="curve" smooth="yes"/>
      <point x="290" y="264"/>
      <point x="300" y="267"/>
      <point x="308" y="267" type="curve" smooth="yes"/>
      <point x="323" y="267"/>
      <point x="333" y="257"/>
      <point x="333" y="239" type="curve" smooth="yes"/>
      <point x="333" y="236"/>
      <point x="333" y="232"/>
      <point x="332" y="228" type="curve" smooth="yes"/>
      <point x="331" y="222"/>
      <point x="330" y="217"/>
      <point x="330" y="214" type="curve" smooth="yes"/>
      <point x="330" y="198"/>
      <point x="345" y="216"/>
      <point x="363" y="246" type="curve" smooth="yes"/>
      <point x="373" y="262"/>
      <point x="381" y="271"/>
      <point x="386" y="271" type="curve" smooth="yes"/>
      <point x="389" y="271"/>
      <point x="391" y="268"/>
      <point x="391" y="261" type="curve" smooth="yes"/>
      <point x="391" y="255"/>
      <point x="389" y="246"/>
      <point x="386" y="234" type="curve" smooth="yes"/>
      <point x="383" y="224"/>
      <point x="382" y="217"/>
      <point x="382" y="213" type="curve" smooth="yes"/>
      <point x="382" y="200"/>
      <point x="399" y="224"/>
      <point x="427" y="266" type="curve" smooth="yes"/>
      <point x="439" y="284"/>
      <point x="448" y="291"/>
      <point x="454" y="291" type="curve" smooth="yes"/>
      <point x="461" y="291"/>
      <point x="465" y="280"/>
      <point x="465" y="265" type="curve" smooth="yes"/>
      <point x="465" y="256"/>
      <point x="463" y="245"/>
      <point x="461" y="234" type="curve" smooth="yes"/>
      <point x="459" y="226"/>
      <point x="459" y="220"/>
      <point x="459" y="216" type="curve" smooth="yes"/>
      <point x="459" y="211"/>
      <point x="460" y="209"/>
      <point x="462" y="209" type="curve" smooth="yes"/>
      <point x="466" y="209"/>
      <point x="472" y="219"/>
      <point x="475" y="223" type="curve" smooth="yes"/>
      <point x="480" y="231"/>
      <point x="480" y="226"/>
      <point x="508" y="281" type="curve" smooth="yes"/>
      <point x="518" y="300"/>
      <point x="526" y="307"/>
      <point x="532" y="307" type="curve" smooth="yes"/>
      <point x="543" y="307"/>
      <point x="548" y="282"/>
      <point x="547" y="272" type="curve" smooth="yes"/>
      <point x="545" y="256"/>
      <point x="543" y="234"/>
      <point x="538" y="211" type="curve" smooth="yes"/>
      <point x="537" y="207"/>
      <point x="537" y="203"/>
      <point x="537" y="201" type="curve" smooth="yes"/>
      <point x="537" y="195"/>
      <point x="539" y="193"/>
      <point x="541" y="193" type="curve" smooth="yes"/>
      <point x="543" y="193"/>
      <point x="546" y="196"/>
      <point x="549" y="200" type="curve" smooth="yes"/>
      <point x="555" y="210"/>
      <point x="566" y="222"/>
      <point x="587" y="274" type="curve" smooth="yes"/>
      <point x="595" y="294"/>
      <point x="604" y="301"/>
      <point x="611" y="301" type="curve" smooth="yes"/>
      <point x="623" y="301"/>
      <point x="632" y="285"/>
      <point x="632" y="276" type="curve" smooth="yes"/>
      <point x="632" y="262"/>
      <point x="630" y="243"/>
      <point x="615" y="210" type="curve" smooth="yes"/>
      <point x="611" y="201"/>
      <point x="609" y="195"/>
      <point x="609" y="191" type="curve" smooth="yes"/>
      <point x="609" y="188"/>
      <point x="610" y="187"/>
      <point x="612" y="187" type="curve" smooth="yes"/>
      <point x="616" y="187"/>
      <point x="623" y="192"/>
      <point x="628" y="200" type="curve" smooth="yes"/>
      <point x="638" y="216"/>
      <point x="657" y="250"/>
      <point x="669" y="290" type="curve" smooth="yes"/>
      <point x="674" y="306"/>
      <point x="681" y="315"/>
      <point x="686" y="315" type="curve" smooth="yes"/>
      <point x="692" y="315"/>
      <point x="696" y="308"/>
      <point x="696" y="294" type="curve" smooth="yes"/>
      <point x="696" y="286"/>
      <point x="694" y="274"/>
      <point x="690" y="259" type="curve" smooth="yes"/>
      <point x="685" y="241"/>
      <point x="683" y="231"/>
      <point x="683" y="225" type="curve" smooth="yes"/>
      <point x="683" y="210"/>
      <point x="698" y="231"/>
      <point x="710" y="251" type="curve" smooth="yes"/>
      <point x="727" y="278"/>
      <point x="746" y="300"/>
      <point x="755" y="345" type="curve" smooth="yes"/>
      <point x="764" y="390"/>
      <point x="769" y="411"/>
      <point x="800" y="444" type="curve" smooth="yes"/>
      <point x="831" y="477"/>
      <point x="857" y="491"/>
      <point x="886" y="532" type="curve" smooth="yes"/>
      <point x="894" y="544"/>
      <point x="917" y="577"/>
      <point x="917" y="593" type="curve" smooth="yes"/>
      <point x="917" y="600"/>
      <point x="910" y="605"/>
      <point x="902" y="605" type="curve" smooth="yes"/>
      <point x="892" y="605"/>
      <point x="860" y="594"/>
      <point x="819" y="585" type="curve" smooth="yes"/>
      <point x="778" y="576"/>
      <point x="724" y="570"/>
      <point x="682" y="570" type="curve" smooth="yes"/>
      <point x="640" y="570"/>
      <point x="529" y="546"/>
      <point x="489" y="546" type="curve" smooth="yes"/>
      <point x="465" y="546"/>
      <point x="426" y="551"/>
      <point x="378" y="551" type="curve" smooth="yes"/>
      <point x="346" y="551"/>
      <point x="311" y="549"/>
      <point x="272" y="542" type="curve" smooth="yes"/>
      <point x="209" y="530"/>
      <point x="109" y="442"/>
      <point x="10" y="442" type="curve" smooth="yes"/>
      <point x="-10" y="442" type="line"/>
      <point x="-10" y="158" type="line"/>
      <point x="10" y="158" type="line" smooth="yes"/>
      <point x="73" y="158"/>
      <point x="188" y="86"/>
      <point x="260" y="48" type="curve" smooth="yes"/>
      <point x="332" y="10"/>
      <point x="525" y="-32"/>
    </contour>
    <contour>
      <point x="659" y="427" type="curve" smooth="yes"/>
      <point x="652" y="427"/>
      <point x="649" y="431"/>
      <point x="649" y="436" type="curve" smooth="yes"/>
      <point x="649" y="451"/>
      <point x="668" y="478"/>
      <point x="680" y="478" type="curve"/>
      <point x="684" y="478"/>
      <point x="686" y="473"/>
      <point x="686" y="466" type="curve" smooth="yes"/>
      <point x="686" y="451"/>
      <point x="676" y="427"/>
    </contour>
    <contour>
      <point x="295" y="368" type="curve" smooth="yes"/>
      <point x="268" y="368"/>
      <point x="201" y="391"/>
      <point x="201" y="436" type="curve" smooth="yes"/>
      <point x="201" y="481"/>
      <point x="229" y="506"/>
      <point x="260" y="506" type="curve"/>
      <point x="321" y="506"/>
      <point x="344" y="461"/>
      <point x="344" y="439" type="curve" smooth="yes"/>
      <point x="344" y="416"/>
      <point x="322" y="368"/>
    </contour>
    <contour>
      <point x="278" y="406" type="curve" smooth="yes"/>
      <point x="289" y="406"/>
      <point x="297" y="413"/>
      <point x="297" y="426" type="curve" smooth="yes"/>
      <point x="297" y="461"/>
      <point x="280" y="479"/>
      <point x="266" y="479" type="curve" smooth="yes"/>
      <point x="257" y="479"/>
      <point x="250" y="472"/>
      <point x="250" y="455" type="curve" smooth="yes"/>
      <point x="250" y="428"/>
      <point x="262" y="406"/>
    </contour>
    <contour>
      <point x="374" y="584" type="curve" smooth="yes"/>
      <point x="397" y="584"/>
      <point x="436" y="599"/>
      <point x="436" y="635" type="curve"/>
      <point x="436" y="654"/>
      <point x="411" y="676"/>
      <point x="377" y="676" type="curve" smooth="yes"/>
      <point x="343" y="676"/>
      <point x="321" y="658"/>
      <point x="321" y="631" type="curve" smooth="yes"/>
      <point x="321" y="598"/>
      <point x="351" y="584"/>
    </contour>
    <contour>
      <point x="178" y="619" type="curve" smooth="yes"/>
      <point x="201" y="619"/>
      <point x="245" y="635"/>
      <point x="259" y="635" type="curve" smooth="yes"/>
      <point x="273" y="635"/>
      <point x="283" y="648"/>
      <point x="283" y="663" type="curve" smooth="yes"/>
      <point x="283" y="688"/>
      <point x="251" y="720"/>
      <point x="203" y="720" type="curve" smooth="yes"/>
      <point x="155" y="720"/>
      <point x="119" y="700"/>
      <point x="119" y="664" type="curve" smooth="yes"/>
      <point x="119" y="628"/>
      <point x="155" y="619"/>
    </contour>
    <contour>
      <point x="269" y="741" type="curve" smooth="yes"/>
      <point x="289" y="741"/>
      <point x="304" y="752"/>
      <point x="304" y="766" type="curve"/>
      <point x="304" y="784"/>
      <point x="280" y="798"/>
      <point x="250" y="798" type="curve" smooth="yes"/>
      <point x="223" y="798"/>
      <point x="201" y="787"/>
      <point x="201" y="772" type="curve" smooth="yes"/>
      <point x="201" y="755"/>
      <point x="231" y="741"/>
    </contour>
  </outline>
</glyph>
<glyph name="O" format="2">
  <advance width="1000"/>
  <unicode hex="004F"/>
  <outline>
    <contour>
      <point x="218" y="-29" type="curve"/>
      <point x="260" y="-31"/>
      <point x="317" y="4"/>
      <point x="328" y="43" type="curve"/>
      <point x="308" y="43" type="line"/>
      <point x="306" y="27"/>
      <point x="311" y="9"/>
      <point x="319" y="-3" type="curve"/>
      <point x="380" y="10"/>
      <point x="421" y="54"/>
      <point x="444" y="118" type="curve"/>
      <point x="405" y="116" type="line"/>
      <point x="413" y="112"/>
      <point x="427" y="107"/>
      <point x="444" y="104" type="curve" smooth="yes"/>
      <point x="463" y="101"/>
      <point x="503" y="118"/>
      <point x="509" y="152" type="curve" smooth="yes"/>
      <point x="511" y="163"/>
      <point x="512" y="173"/>
      <point x="512" y="183" type="curve" smooth="yes"/>
      <point x="512" y="264"/>
      <point x="446" y="289"/>
      <point x="427" y="293" type="curve" smooth="yes"/>
      <point x="421" y="294"/>
      <point x="414" y="295"/>
      <point x="408" y="295" type="curve" smooth="yes"/>
      <point x="393" y="295"/>
      <point x="377" y="290"/>
      <point x="361" y="271" type="curve"/>
      <point x="328" y="297"/>
      <point x="254" y="321"/>
      <point x="218" y="318" type="curve"/>
      <point x="213" y="312"/>
      <point x="211" y="306"/>
      <point x="210" y="300" type="curve"/>
      <point x="161" y="299"/>
      <point x="134" y="288"/>
      <point x="122" y="283" type="curve"/>
      <point x="122" y="281"/>
      <point x="122" y="280"/>
      <point x="122" y="278" type="curve" smooth="yes"/>
      <point x="122" y="271"/>
      <point x="123" y="263"/>
      <point x="124" y="255" type="curve"/>
      <point x="138" y="266" type="line"/>
      <point x="138" y="270"/>
      <point x="88" y="257"/>
      <point x="67" y="236" type="curve" smooth="yes"/>
      <point x="52" y="221"/>
      <point x="51" y="213"/>
      <point x="54" y="205" type="curve"/>
      <point x="25" y="199"/>
      <point x="5" y="166"/>
      <point x="4" y="156" type="curve" smooth="yes"/>
      <point x="4" y="155"/>
      <point x="4" y="154"/>
      <point x="4" y="153" type="curve" smooth="yes"/>
      <point x="4" y="144"/>
      <point x="7" y="140"/>
      <point x="16" y="140" type="curve" smooth="yes"/>
      <point x="24" y="140"/>
      <point x="39" y="148"/>
      <point x="70" y="185" type="curve"/>
      <point x="76" y="177" type="line"/>
      <point x="85" y="179"/>
      <point x="141" y="206"/>
      <point x="151" y="221" type="curve"/>
      <point x="126" y="243" type="line"/>
      <point x="135" y="214"/>
      <point x="141" y="206"/>
      <point x="157" y="192" type="curve"/>
      <point x="171" y="198"/>
      <point x="188" y="199"/>
      <point x="216" y="229" type="curve"/>
      <point x="218" y="224"/>
      <point x="220" y="220"/>
      <point x="225" y="215" type="curve"/>
      <point x="235" y="213"/>
      <point x="246" y="212"/>
      <point x="256" y="212" type="curve" smooth="yes"/>
      <point x="288" y="212"/>
      <point x="322" y="220"/>
      <point x="342" y="230" type="curve"/>
      <point x="338" y="214"/>
      <point x="337" y="197"/>
      <point x="337" y="184" type="curve" smooth="yes"/>
      <point x="337" y="175"/>
      <point x="337" y="168"/>
      <point x="339" y="165" type="curve" smooth="yes"/>
      <point x="343" y="157"/>
      <point x="358" y="140"/>
      <point x="384" y="129" type="curve"/>
      <point x="362" y="131"/>
      <point x="303" y="102"/>
      <point x="282" y="86" type="curve"/>
      <point x="284" y="77"/>
      <point x="287" y="68"/>
      <point x="296" y="57" type="curve"/>
      <point x="307" y="68" type="line"/>
      <point x="301" y="69"/>
      <point x="294" y="70"/>
      <point x="288" y="70" type="curve" smooth="yes"/>
      <point x="257" y="70"/>
      <point x="222" y="58"/>
      <point x="212" y="51" type="curve" smooth="yes"/>
      <point x="208" y="48"/>
      <point x="203" y="43"/>
      <point x="204" y="36" type="curve"/>
      <point x="201" y="37"/>
      <point x="196" y="37"/>
      <point x="189" y="37" type="curve" smooth="yes"/>
      <point x="175" y="37"/>
      <point x="154" y="35"/>
      <point x="137" y="27" type="curve"/>
      <point x="134" y="22"/>
      <point x="133" y="16"/>
      <point x="132" y="11" type="curve"/>
      <point x="161" y="10" type="line"/>
      <point x="146" y="17"/>
      <point x="127" y="24"/>
      <point x="109" y="27" type="curve" smooth="yes"/>
      <point x="102" y="28"/>
      <point x="96" y="29"/>
      <point x="90" y="29" type="curve" smooth="yes"/>
      <point x="70" y="29"/>
      <point x="53" y="23"/>
      <point x="53" y="7" type="curve" smooth="yes"/>
      <point x="53" y="-2"/>
      <point x="64" y="-7"/>
      <point x="79" y="-10" type="curve" smooth="yes"/>
      <point x="84" y="-11"/>
      <point x="91" y="-11"/>
      <point x="98" y="-11" type="curve" smooth="yes"/>
      <point x="121" y="-11"/>
      <point x="149" y="-6"/>
      <point x="161" y="8" type="curve"/>
      <point x="131" y="8" type="line"/>
      <point x="131" y="4"/>
      <point x="130" y="1"/>
      <point x="130" y="-3" type="curve" smooth="yes"/>
      <point x="130" y="-9"/>
      <point x="131" y="-15"/>
      <point x="133" y="-22" type="curve"/>
      <point x="143" y="-25"/>
      <point x="157" y="-27"/>
      <point x="172" y="-27" type="curve" smooth="yes"/>
      <point x="192" y="-27"/>
      <point x="213" y="-23"/>
      <point x="222" y="-14" type="curve"/>
      <point x="210" y="-7" type="line"/>
      <point x="211" y="-16"/>
      <point x="213" y="-23"/>
    </contour>
    <contour>
      <point x="773" y="-88" type="curve" smooth="yes"/>
      <point x="778" y="-88"/>
      <point x="818" y="-82"/>
      <point x="857" y="-58" type="curve" smooth="yes"/>
      <point x="924" y="-17"/>
      <point x="972" y="79"/>
      <point x="972" y="152" type="curve" smooth="yes"/>
      <point x="972" y="176"/>
      <point x="967" y="197"/>
      <point x="956" y="213" type="curve" smooth="yes"/>
      <point x="946" y="228"/>
      <point x="931" y="240"/>
      <point x="922" y="235" type="curve" smooth="yes"/>
      <point x="895" y="220"/>
      <point x="886" y="176"/>
      <point x="886" y="134" type="curve" smooth="yes"/>
      <point x="886" y="122"/>
      <point x="887" y="111"/>
      <point x="888" y="100" type="curve" smooth="yes"/>
      <point x="891" y="76"/>
      <point x="895" y="68"/>
      <point x="890" y="64" type="curve" smooth="yes"/>
      <point x="886" y="61"/>
      <point x="868" y="45"/>
      <point x="858" y="28" type="curve" smooth="yes"/>
      <point x="848" y="12"/>
      <point x="847" y="-4"/>
      <point x="846" y="-19" type="curve"/>
      <point x="800" y="-48"/>
      <point x="777" y="-76"/>
      <point x="771" y="-80" type="curve" smooth="yes"/>
      <point x="765" y="-84"/>
      <point x="768" y="-88"/>
    </contour>
    <contour>
      <point x="674" y="-60" type="curve"/>
      <point x="753" y="-32"/>
      <point x="820" y="49"/>
      <point x="836" y="146" type="curve"/>
      <point x="837" y="155"/>
      <point x="838" y="163"/>
      <point x="838" y="170" type="curve" smooth="yes"/>
      <point x="838" y="227"/>
      <point x="800" y="250"/>
      <point x="783" y="250" type="curve" smooth="yes"/>
      <point x="767" y="250"/>
      <point x="753" y="227"/>
      <point x="753" y="195" type="curve" smooth="yes"/>
      <point x="753" y="164"/>
      <point x="770" y="139"/>
      <point x="766" y="116" type="curve" smooth="yes"/>
      <point x="764" y="104"/>
      <point x="741" y="83"/>
      <point x="739" y="72" type="curve" smooth="yes"/>
      <point x="737" y="60"/>
      <point x="735" y="39"/>
      <point x="724" y="21" type="curve" smooth="yes"/>
      <point x="713" y="4"/>
      <point x="690" y="2"/>
      <point x="686" y="-11" type="curve" smooth="yes"/>
      <point x="682" y="-23"/>
      <point x="668" y="-43"/>
      <point x="663" y="-49" type="curve" smooth="yes"/>
      <point x="661" y="-51"/>
      <point x="660" y="-54"/>
      <point x="660" y="-56" type="curve" smooth="yes"/>
      <point x="660" y="-60"/>
      <point x="664" y="-63"/>
    </contour>
    <contour>
      <point x="913" y="152" type="curve" smooth="yes"/>
      <point x="999" y="152"/>
      <point x="1006" y="249"/>
      <point x="1006" y="341" type="curve" smooth="yes"/>
      <point x="1006" y="435"/>
      <point x="963" y="462"/>
      <point x="923" y="469" type="curve"/>
      <point x="916" y="470"/>
      <point x="910" y="471"/>
      <point x="903" y="471" type="curve" smooth="yes"/>
      <point x="845" y="471"/>
      <point x="791" y="425"/>
      <point x="775" y="327" type="curve" smooth="yes"/>
      <point x="773" y="318"/>
      <point x="773" y="309"/>
      <point x="773" y="300" type="curve" smooth="yes"/>
      <point x="773" y="218"/>
      <point x="837" y="152"/>
    </contour>
    <contour>
      <point x="981" y="157" type="curve" smooth="yes"/>
      <point x="1010" y="157" type="line"/>
      <point x="1011" y="442" type="line"/>
      <point x="1001" y="442" type="line"/>
      <point x="938" y="442"/>
      <point x="788" y="434"/>
      <point x="686" y="392" type="curve"/>
      <point x="733" y="157" type="line"/>
      <point x="758" y="162"/>
      <point x="803" y="166"/>
      <point x="851" y="166" type="curve" smooth="yes"/>
      <point x="892" y="166"/>
      <point x="960" y="157"/>
    </contour>
    <contour>
      <point x="536" y="-43" type="curve"/>
      <point x="668" y="-4"/>
      <point x="676" y="83"/>
      <point x="689" y="163" type="curve"/>
      <point x="690" y="166"/>
      <point x="690" y="169"/>
      <point x="690" y="172" type="curve" smooth="yes"/>
      <point x="690" y="186"/>
      <point x="683" y="191"/>
      <point x="674" y="191" type="curve" smooth="yes"/>
      <point x="659" y="191"/>
      <point x="637" y="175"/>
      <point x="631" y="151" type="curve" smooth="yes"/>
      <point x="630" y="147"/>
      <point x="630" y="133"/>
      <point x="628" y="129" type="curve" smooth="yes"/>
      <point x="616" y="105"/>
      <point x="615" y="81"/>
      <point x="609" y="53" type="curve" smooth="yes"/>
      <point x="606" y="39"/>
      <point x="600" y="28"/>
      <point x="590" y="25" type="curve" smooth="yes"/>
      <point x="575" y="20"/>
      <point x="559" y="6"/>
      <point x="551" y="-8" type="curve" smooth="yes"/>
      <point x="543" y="-22"/>
      <point x="537" y="-24"/>
      <point x="528" y="-32" type="curve" smooth="yes"/>
      <point x="525" y="-35"/>
      <point x="524" y="-37"/>
      <point x="524" y="-40" type="curve" smooth="yes"/>
      <point x="524" y="-44"/>
      <point x="528" y="-46"/>
    </contour>
    <contour>
      <point x="735" y="118" type="curve" smooth="yes"/>
      <point x="789" y="118"/>
      <point x="845" y="177"/>
      <point x="859" y="258" type="curve" smooth="yes"/>
      <point x="860" y="265"/>
      <point x="861" y="271"/>
      <point x="861" y="277" type="curve" smooth="yes"/>
      <point x="861" y="355"/>
      <point x="778" y="408"/>
      <point x="708" y="420" type="curve"/>
      <point x="704" y="421"/>
      <point x="701" y="421"/>
      <point x="697" y="421" type="curve" smooth="yes"/>
      <point x="661" y="421"/>
      <point x="612" y="395"/>
      <point x="612" y="310" type="curve" smooth="yes"/>
      <point x="612" y="195"/>
      <point x="664" y="129"/>
      <point x="723" y="119" type="curve" smooth="yes"/>
      <point x="727" y="118"/>
      <point x="731" y="118"/>
    </contour>
    <contour>
      <point x="372" y="-92" type="curve" smooth="yes"/>
      <point x="377" y="-94"/>
      <point x="380" y="-83"/>
      <point x="412" y="-65" type="curve" smooth="yes"/>
      <point x="454" y="-41"/>
      <point x="492" y="12"/>
      <point x="504" y="52" type="curve" smooth="yes"/>
      <point x="513" y="82"/>
      <point x="515" y="90"/>
      <point x="519" y="145" type="curve"/>
      <point x="519" y="168"/>
      <point x="512" y="177"/>
      <point x="503" y="177" type="curve" smooth="yes"/>
      <point x="489" y="177"/>
      <point x="469" y="156"/>
      <point x="463" y="134" type="curve" smooth="yes"/>
      <point x="461" y="128"/>
      <point x="460" y="120"/>
      <point x="460" y="111" type="curve" smooth="yes"/>
      <point x="460" y="90"/>
      <point x="465" y="66"/>
      <point x="465" y="60" type="curve" smooth="yes"/>
      <point x="465" y="51"/>
      <point x="445" y="51"/>
      <point x="430" y="5" type="curve" smooth="yes"/>
      <point x="423" y="-17"/>
      <point x="412" y="-18"/>
      <point x="400" y="-31" type="curve" smooth="yes"/>
      <point x="387" y="-45"/>
      <point x="373" y="-65"/>
      <point x="370" y="-77" type="curve" smooth="yes"/>
      <point x="368" y="-85"/>
      <point x="368" y="-90"/>
    </contour>
    <contour>
      <point x="915" y="341" type="curve" smooth="yes"/>
      <point x="924" y="335"/>
      <point x="940" y="344"/>
      <point x="951" y="358" type="curve" smooth="yes"/>
      <point x="967" y="378"/>
      <point x="974" y="406"/>
      <point x="974" y="438" type="curve" smooth="yes"/>
      <point x="974" y="507"/>
      <point x="939" y="593"/>
      <point x="884" y="638" type="curve" smooth="yes"/>
      <point x="848" y="667"/>
      <point x="808" y="677"/>
      <point x="804" y="679" type="curve" smooth="yes"/>
      <point x="803" y="679"/>
      <point x="802" y="679"/>
      <point x="802" y="679" type="curve" smooth="yes"/>
      <point x="798" y="679"/>
      <point x="796" y="675"/>
      <point x="801" y="671" type="curve" smooth="yes"/>
      <point x="806" y="667"/>
      <point x="826" y="635"/>
      <point x="869" y="601" type="curve"/>
      <point x="869" y="587"/>
      <point x="868" y="570"/>
      <point x="875" y="553" type="curve" smooth="yes"/>
      <point x="882" y="535"/>
      <point x="899" y="517"/>
      <point x="903" y="514" type="curve" smooth="yes"/>
      <point x="908" y="510"/>
      <point x="903" y="500"/>
      <point x="896" y="477" type="curve" smooth="yes"/>
      <point x="891" y="459"/>
      <point x="887" y="438"/>
      <point x="887" y="417" type="curve" smooth="yes"/>
      <point x="887" y="385"/>
      <point x="895" y="354"/>
    </contour>
    <contour>
      <point x="591" y="105" type="curve" smooth="yes"/>
      <point x="649" y="105"/>
      <point x="662" y="172"/>
      <point x="667" y="201" type="curve" smooth="yes"/>
      <point x="668" y="209"/>
      <point x="669" y="217"/>
      <point x="669" y="225" type="curve" smooth="yes"/>
      <point x="669" y="295"/>
      <point x="623" y="370"/>
      <point x="557" y="370" type="curve" smooth="yes"/>
      <point x="520" y="370"/>
      <point x="478" y="347"/>
      <point x="460" y="253" type="curve" smooth="yes"/>
      <point x="453" y="212"/>
      <point x="512" y="105"/>
    </contour>
    <contour>
      <point x="785" y="343" type="curve" smooth="yes"/>
      <point x="799" y="340"/>
      <point x="810" y="366"/>
      <point x="810" y="389" type="curve" smooth="yes"/>
      <point x="810" y="467"/>
      <point x="711" y="570"/>
      <point x="614" y="587" type="curve" smooth="yes"/>
      <point x="600" y="589"/>
      <point x="587" y="590"/>
      <point x="575" y="590" type="curve" smooth="yes"/>
      <point x="548" y="590"/>
      <point x="528" y="586"/>
      <point x="525" y="585" type="curve" smooth="yes"/>
      <point x="520" y="584"/>
      <point x="519" y="577"/>
      <point x="526" y="576" type="curve" smooth="yes"/>
      <point x="533" y="575"/>
      <point x="566" y="557"/>
      <point x="620" y="548" type="curve"/>
      <point x="626" y="536"/>
      <point x="635" y="522"/>
      <point x="649" y="509" type="curve" smooth="yes"/>
      <point x="663" y="496"/>
      <point x="686" y="488"/>
      <point x="692" y="487" type="curve" smooth="yes"/>
      <point x="698" y="486"/>
      <point x="698" y="476"/>
      <point x="703" y="453" type="curve" smooth="yes"/>
      <point x="713" y="405"/>
      <point x="748" y="350"/>
    </contour>
    <contour>
      <point x="605" y="329" type="curve" smooth="yes"/>
      <point x="624" y="329"/>
      <point x="631" y="345"/>
      <point x="635" y="367" type="curve" smooth="yes"/>
      <point x="643" y="405"/>
      <point x="526" y="490"/>
      <point x="447" y="503" type="curve" smooth="yes"/>
      <point x="431" y="506"/>
      <point x="413" y="507"/>
      <point x="396" y="507" type="curve" smooth="yes"/>
      <point x="369" y="507"/>
      <point x="344" y="504"/>
      <point x="333" y="500" type="curve" smooth="yes"/>
      <point x="325" y="497"/>
      <point x="324" y="495"/>
      <point x="323" y="493" type="curve" smooth="yes"/>
      <point x="322" y="490"/>
      <point x="327" y="488"/>
      <point x="331" y="486" type="curve" smooth="yes"/>
      <point x="347" y="478"/>
      <point x="361" y="474"/>
      <point x="374" y="472" type="curve" smooth="yes"/>
      <point x="387" y="470"/>
      <point x="398" y="471"/>
      <point x="409" y="471" type="curve" smooth="yes"/>
      <point x="413" y="471"/>
      <point x="415" y="469"/>
      <point x="418" y="465" type="curve" smooth="yes"/>
      <point x="449" y="423"/>
      <point x="504" y="435"/>
      <point x="509" y="430" type="curve" smooth="yes"/>
      <point x="513" y="426"/>
      <point x="515" y="418"/>
      <point x="518" y="411" type="curve" smooth="yes"/>
      <point x="532" y="378"/>
      <point x="575" y="334"/>
      <point x="597" y="330" type="curve" smooth="yes"/>
      <point x="600" y="329"/>
      <point x="603" y="329"/>
    </contour>
    <contour>
      <point x="454" y="271" type="curve" smooth="yes"/>
      <point x="465" y="271"/>
      <point x="476" y="281"/>
      <point x="479" y="294" type="curve"/>
      <point x="483" y="320"/>
      <point x="449" y="388"/>
      <point x="380" y="400" type="curve" smooth="yes"/>
      <point x="374" y="401"/>
      <point x="369" y="401"/>
      <point x="363" y="401" type="curve" smooth="yes"/>
      <point x="321" y="401"/>
      <point x="281" y="377"/>
      <point x="264" y="363" type="curve" smooth="yes"/>
      <point x="260" y="360"/>
      <point x="259" y="358"/>
      <point x="259" y="356" type="curve" smooth="yes"/>
      <point x="259" y="354"/>
      <point x="261" y="354"/>
      <point x="264" y="354" type="curve" smooth="yes"/>
      <point x="272" y="354"/>
      <point x="286" y="358"/>
      <point x="293" y="359" type="curve" smooth="yes"/>
      <point x="297" y="360"/>
      <point x="302" y="365"/>
      <point x="312" y="367" type="curve" smooth="yes"/>
      <point x="315" y="368"/>
      <point x="317" y="368"/>
      <point x="320" y="368" type="curve" smooth="yes"/>
      <point x="327" y="368"/>
      <point x="342" y="358"/>
      <point x="362" y="356" type="curve" smooth="yes"/>
      <point x="363" y="356"/>
      <point x="364" y="356"/>
      <point x="365" y="356" type="curve" smooth="yes"/>
      <point x="372" y="356"/>
      <point x="378" y="358"/>
      <point x="383" y="357" type="curve" smooth="yes"/>
      <point x="391" y="356"/>
      <point x="399" y="342"/>
      <point x="403" y="330" type="curve" smooth="yes"/>
      <point x="420" y="278"/>
      <point x="441" y="271"/>
    </contour>
  </outline>
</glyph>
<glyph name="Q" format="2">
  <advance width="1000"/>
  <unicode hex="0051"/>
  <outline>
    <contour>
      <point x="990" y="157" type="curve" smooth="yes"/>
      <point x="1010" y="157" type="line"/>
      <point x="1010" y="320"/>
      <point x="1010" y="414"/>
      <point x="1010" y="442" type="curve"/>
      <point x="1000" y="442" type="line"/>
      <point x="848" y="442"/>
      <point x="665" y="553"/>
      <point x="570" y="553" type="curve" smooth="yes"/>
      <point x="476" y="553"/>
      <point x="221" y="444"/>
      <point x="10" y="442" type="curve" smooth="yes"/>
      <point x="9" y="442"/>
      <point x="-9" y="442"/>
      <point x="-10" y="442" type="curve"/>
      <point x="-10" y="157" type="line"/>
      <point x="20" y="157" type="line" smooth="yes"/>
      <point x="80" y="157"/>
      <point x="400" y="262"/>
      <point x="549" y="262" type="curve" smooth="yes"/>
      <point x="628" y="262"/>
      <point x="851" y="157"/>
    </contour>
    <contour>
      <point x="797" y="-109" type="curve"/>
      <point x="804" y="-109"/>
      <point x="841" y="-80"/>
      <point x="874" y="-33" type="curve" smooth="yes"/>
      <point x="903" y="8"/>
      <point x="942" y="61"/>
      <point x="942" y="149" type="curve" smooth="yes"/>
      <point x="942" y="204"/>
      <point x="925" y="220"/>
      <point x="909" y="220" type="curve" smooth="yes"/>
      <point x="901" y="220"/>
      <point x="894" y="216"/>
      <point x="889" y="211" type="curve"/>
      <point x="879" y="197"/>
      <point x="876" y="177"/>
      <point x="876" y="158" type="curve" smooth="yes"/>
      <point x="876" y="141"/>
      <point x="879" y="126"/>
      <point x="881" y="117" type="curve" smooth="yes"/>
      <point x="883" y="111"/>
      <point x="883" y="106"/>
      <point x="883" y="102" type="curve" smooth="yes"/>
      <point x="883" y="93"/>
      <point x="880" y="88"/>
      <point x="877" y="84" type="curve" smooth="yes"/>
      <point x="871" y="77"/>
      <point x="861" y="63"/>
      <point x="861" y="36" type="curve" smooth="yes"/>
      <point x="861" y="11"/>
      <point x="847" y="2"/>
      <point x="832" y="-17" type="curve" smooth="yes"/>
      <point x="817" y="-38"/>
      <point x="823" y="-52"/>
      <point x="818" y="-66" type="curve" smooth="yes"/>
      <point x="813" y="-80"/>
      <point x="794" y="-102"/>
      <point x="794" y="-102" type="curve" smooth="yes"/>
      <point x="794" y="-102"/>
      <point x="791" y="-109"/>
    </contour>
    <contour>
      <point x="629" y="-56" type="curve" smooth="yes"/>
      <point x="659" y="-56"/>
      <point x="721" y="62"/>
      <point x="747" y="138" type="curve"/>
      <point x="753" y="153"/>
      <point x="755" y="166"/>
      <point x="757" y="177" type="curve" smooth="yes"/>
      <point x="758" y="184"/>
      <point x="759" y="190"/>
      <point x="759" y="196" type="curve" smooth="yes"/>
      <point x="759" y="217"/>
      <point x="749" y="227"/>
      <point x="739" y="229" type="curve" smooth="yes"/>
      <point x="735" y="230"/>
      <point x="731" y="230"/>
      <point x="726" y="230" type="curve" smooth="yes"/>
      <point x="708" y="230"/>
      <point x="692" y="223"/>
      <point x="692" y="200" type="curve" smooth="yes"/>
      <point x="692" y="180"/>
      <point x="698" y="154"/>
      <point x="698" y="145" type="curve" smooth="yes"/>
      <point x="698" y="134"/>
      <point x="692" y="128"/>
      <point x="681" y="115" type="curve" smooth="yes"/>
      <point x="678" y="111"/>
      <point x="677" y="104"/>
      <point x="676" y="99" type="curve" smooth="yes"/>
      <point x="675" y="96"/>
      <point x="675" y="93"/>
      <point x="675" y="90" type="curve" smooth="yes"/>
      <point x="675" y="85"/>
      <point x="676" y="81"/>
      <point x="676" y="79" type="curve" smooth="yes"/>
      <point x="676" y="73"/>
      <point x="678" y="66"/>
      <point x="678" y="58" type="curve" smooth="yes"/>
      <point x="678" y="50"/>
      <point x="675" y="43"/>
      <point x="669" y="37" type="curve" smooth="yes"/>
      <point x="645" y="15"/>
      <point x="640" y="-14"/>
      <point x="637" y="-25" type="curve" smooth="yes"/>
      <point x="633" y="-35"/>
      <point x="622" y="-44"/>
      <point x="620" y="-48" type="curve" smooth="yes"/>
      <point x="619" y="-49"/>
      <point x="619" y="-50"/>
      <point x="619" y="-51" type="curve" smooth="yes"/>
      <point x="619" y="-54"/>
      <point x="622" y="-56"/>
    </contour>
    <contour>
      <point x="907" y="143" type="curve" smooth="yes"/>
      <point x="997" y="143"/>
      <point x="1011" y="235"/>
      <point x="1011" y="314" type="curve"/>
      <point x="1011" y="419"/>
      <point x="977" y="489"/>
      <point x="882" y="489" type="curve" smooth="yes"/>
      <point x="812" y="489"/>
      <point x="764" y="458"/>
      <point x="764" y="352" type="curve" smooth="yes"/>
      <point x="764" y="246"/>
      <point x="796" y="143"/>
    </contour>
    <contour>
      <point x="530" y="-49" type="curve" smooth="yes"/>
      <point x="538" y="-50"/>
      <point x="534" y="-28"/>
      <point x="537" y="-11" type="curve" smooth="yes"/>
      <point x="540" y="7"/>
      <point x="553" y="42"/>
      <point x="556" y="59" type="curve" smooth="yes"/>
      <point x="557" y="62"/>
      <point x="557" y="65"/>
      <point x="557" y="68" type="curve" smooth="yes"/>
      <point x="557" y="81"/>
      <point x="552" y="89"/>
      <point x="552" y="106" type="curve" smooth="yes"/>
      <point x="552" y="125"/>
      <point x="561" y="156"/>
      <point x="567" y="199" type="curve" smooth="yes"/>
      <point x="568" y="204"/>
      <point x="568" y="208"/>
      <point x="568" y="213" type="curve" smooth="yes"/>
      <point x="568" y="242"/>
      <point x="554" y="262"/>
      <point x="531" y="265" type="curve"/>
      <point x="509" y="266"/>
      <point x="497" y="265"/>
      <point x="497" y="235" type="curve" smooth="yes"/>
      <point x="497" y="212"/>
      <point x="504" y="174"/>
      <point x="507" y="160" type="curve" smooth="yes"/>
      <point x="508" y="156"/>
      <point x="508" y="152"/>
      <point x="508" y="149" type="curve" smooth="yes"/>
      <point x="508" y="137"/>
      <point x="505" y="124"/>
      <point x="503" y="108" type="curve" smooth="yes"/>
      <point x="500" y="86"/>
      <point x="518" y="49"/>
      <point x="520" y="38" type="curve" smooth="yes"/>
      <point x="522" y="27"/>
      <point x="519" y="10"/>
      <point x="516" y="-6" type="curve" smooth="yes"/>
      <point x="513" y="-22"/>
      <point x="522" y="-48"/>
    </contour>
    <contour>
      <point x="762" y="192" type="curve" smooth="yes"/>
      <point x="825" y="192"/>
      <point x="851" y="255"/>
      <point x="851" y="352" type="curve" smooth="yes"/>
      <point x="851" y="488"/>
      <point x="808" y="555"/>
      <point x="706" y="555" type="curve" smooth="yes"/>
      <point x="630" y="555"/>
      <point x="587" y="517"/>
      <point x="587" y="411" type="curve" smooth="yes"/>
      <point x="587" y="254"/>
      <point x="712" y="192"/>
    </contour>
    <contour>
      <point x="921" y="425" type="curve" smooth="yes"/>
      <point x="938" y="425"/>
      <point x="957" y="442"/>
      <point x="957" y="508" type="curve" smooth="yes"/>
      <point x="957" y="588"/>
      <point x="922" y="638"/>
      <point x="896" y="679" type="curve" smooth="yes"/>
      <point x="866" y="727"/>
      <point x="830" y="758"/>
      <point x="823" y="758" type="curve"/>
      <point x="817" y="758"/>
      <point x="820" y="751"/>
      <point x="820" y="751" type="curve" smooth="yes"/>
      <point x="820" y="751"/>
      <point x="838" y="728"/>
      <point x="842" y="714" type="curve" smooth="yes"/>
      <point x="846" y="700"/>
      <point x="840" y="686"/>
      <point x="854" y="665" type="curve" smooth="yes"/>
      <point x="868" y="644"/>
      <point x="882" y="634"/>
      <point x="880" y="608" type="curve" smooth="yes"/>
      <point x="878" y="582"/>
      <point x="889" y="569"/>
      <point x="894" y="562" type="curve" smooth="yes"/>
      <point x="897" y="558"/>
      <point x="899" y="553"/>
      <point x="899" y="546" type="curve" smooth="yes"/>
      <point x="899" y="541"/>
      <point x="898" y="535"/>
      <point x="896" y="528" type="curve" smooth="yes"/>
      <point x="893" y="518"/>
      <point x="890" y="499"/>
      <point x="890" y="480" type="curve" smooth="yes"/>
      <point x="890" y="463"/>
      <point x="892" y="446"/>
      <point x="900" y="434" type="curve"/>
      <point x="904" y="429"/>
      <point x="912" y="425"/>
    </contour>
    <contour>
      <point x="374" y="-63" type="curve" smooth="yes"/>
      <point x="376" y="-64"/>
      <point x="378" y="-62"/>
      <point x="380" y="-61" type="curve" smooth="yes"/>
      <point x="384" y="-59"/>
      <point x="382" y="-57"/>
      <point x="382" y="-51" type="curve" smooth="yes"/>
      <point x="382" y="-50"/>
      <point x="382" y="-49"/>
      <point x="382" y="-48" type="curve" smooth="yes"/>
      <point x="382" y="-34"/>
      <point x="384" y="56"/>
      <point x="370" y="84" type="curve" smooth="yes"/>
      <point x="363" y="98"/>
      <point x="360" y="113"/>
      <point x="360" y="127" type="curve" smooth="yes"/>
      <point x="360" y="142"/>
      <point x="364" y="156"/>
      <point x="366" y="165" type="curve" smooth="yes"/>
      <point x="367" y="170"/>
      <point x="368" y="179"/>
      <point x="368" y="190" type="curve" smooth="yes"/>
      <point x="368" y="217"/>
      <point x="364" y="254"/>
      <point x="354" y="265" type="curve"/>
      <point x="349" y="269"/>
      <point x="337" y="277"/>
      <point x="322" y="277" type="curve" smooth="yes"/>
      <point x="315" y="277"/>
      <point x="308" y="275"/>
      <point x="300" y="270" type="curve" smooth="yes"/>
      <point x="285" y="260"/>
      <point x="270" y="246"/>
      <point x="270" y="230" type="curve" smooth="yes"/>
      <point x="270" y="221"/>
      <point x="275" y="212"/>
      <point x="286" y="202" type="curve" smooth="yes"/>
      <point x="303" y="186"/>
      <point x="308" y="172"/>
      <point x="308" y="160" type="curve" smooth="yes"/>
      <point x="308" y="148"/>
      <point x="304" y="137"/>
      <point x="304" y="130" type="curve" smooth="yes"/>
      <point x="304" y="114"/>
      <point x="312" y="99"/>
      <point x="323" y="91" type="curve" smooth="yes"/>
      <point x="331" y="85"/>
      <point x="332" y="68"/>
      <point x="332" y="55" type="curve" smooth="yes"/>
      <point x="332" y="44"/>
      <point x="331" y="46"/>
      <point x="331" y="41" type="curve" smooth="yes"/>
      <point x="331" y="35"/>
      <point x="334" y="19"/>
      <point x="354" y="-12" type="curve" smooth="yes"/>
      <point x="373" y="-41"/>
      <point x="366" y="-59"/>
    </contour>
    <contour>
      <point x="553" y="227" type="curve" smooth="yes"/>
      <point x="653" y="227"/>
      <point x="678" y="310"/>
      <point x="678" y="395" type="curve" smooth="yes"/>
      <point x="678" y="480"/>
      <point x="622" y="567"/>
      <point x="553" y="567" type="curve"/>
      <point x="449" y="567"/>
      <point x="407" y="509"/>
      <point x="407" y="385" type="curve" smooth="yes"/>
      <point x="407" y="298"/>
      <point x="460" y="227"/>
    </contour>
    <contour>
      <point x="749" y="484" type="curve" smooth="yes"/>
      <point x="757" y="484"/>
      <point x="778" y="495"/>
      <point x="778" y="520" type="curve"/>
      <point x="778" y="592"/>
      <point x="752" y="629"/>
      <point x="734" y="666" type="curve" smooth="yes"/>
      <point x="716" y="704"/>
      <point x="644" y="775"/>
      <point x="620" y="775" type="curve" smooth="yes"/>
      <point x="617" y="775"/>
      <point x="615" y="773"/>
      <point x="615" y="770" type="curve" smooth="yes"/>
      <point x="615" y="764"/>
      <point x="620" y="762"/>
      <point x="629" y="755" type="curve" smooth="yes"/>
      <point x="639" y="747"/>
      <point x="647" y="724"/>
      <point x="659" y="712" type="curve" smooth="yes"/>
      <point x="671" y="700"/>
      <point x="685" y="693"/>
      <point x="686" y="681" type="curve" smooth="yes"/>
      <point x="687" y="669"/>
      <point x="695" y="640"/>
      <point x="706" y="625" type="curve" smooth="yes"/>
      <point x="709" y="621"/>
      <point x="710" y="616"/>
      <point x="710" y="610" type="curve" smooth="yes"/>
      <point x="710" y="597"/>
      <point x="703" y="581"/>
      <point x="702" y="567" type="curve" smooth="yes"/>
      <point x="700" y="547"/>
      <point x="703" y="511"/>
      <point x="715" y="497" type="curve" smooth="yes"/>
      <point x="727" y="483"/>
      <point x="741" y="484"/>
    </contour>
    <contour>
      <point x="25" y="-104" type="curve" smooth="yes"/>
      <point x="40" y="-104"/>
      <point x="78" y="-34"/>
      <point x="99" y="35" type="curve" smooth="yes"/>
      <point x="114" y="84"/>
      <point x="123" y="134"/>
      <point x="123" y="158" type="curve"/>
      <point x="123" y="172"/>
      <point x="99" y="192"/>
      <point x="84" y="192" type="curve" smooth="yes"/>
      <point x="65" y="192"/>
      <point x="47" y="178"/>
      <point x="47" y="120" type="curve" smooth="yes"/>
      <point x="47" y="104"/>
      <point x="52" y="69"/>
      <point x="52" y="52" type="curve" smooth="yes"/>
      <point x="52" y="35"/>
      <point x="35" y="17"/>
      <point x="35" y="3" type="curve" smooth="yes"/>
      <point x="35" y="-11"/>
      <point x="39" y="-16"/>
      <point x="39" y="-23" type="curve" smooth="yes"/>
      <point x="39" y="-30"/>
      <point x="34" y="-47"/>
      <point x="34" y="-57" type="curve" smooth="yes"/>
      <point x="34" y="-67"/>
      <point x="18" y="-92"/>
      <point x="18" y="-98" type="curve" smooth="yes"/>
      <point x="18" y="-101"/>
      <point x="20" y="-104"/>
    </contour>
    <contour>
      <point x="343" y="190" type="curve" smooth="yes"/>
      <point x="431" y="190"/>
      <point x="468" y="250"/>
      <point x="468" y="355" type="curve" smooth="yes"/>
      <point x="468" y="460"/>
      <point x="426" y="545"/>
      <point x="324" y="545" type="curve"/>
      <point x="227" y="545"/>
      <point x="180" y="463"/>
      <point x="180" y="378" type="curve" smooth="yes"/>
      <point x="180" y="286"/>
      <point x="235" y="190"/>
    </contour>
    <contour>
      <point x="525" y="514" type="curve"/>
      <point x="548" y="514"/>
      <point x="558" y="533"/>
      <point x="558" y="560" type="curve" smooth="yes"/>
      <point x="558" y="587"/>
      <point x="542" y="682"/>
      <point x="493" y="725" type="curve" smooth="yes"/>
      <point x="444" y="768"/>
      <point x="436" y="763"/>
      <point x="429" y="769" type="curve" smooth="yes"/>
      <point x="422" y="775"/>
      <point x="415" y="781"/>
      <point x="412" y="781" type="curve" smooth="yes"/>
      <point x="409" y="781"/>
      <point x="407" y="779"/>
      <point x="407" y="776" type="curve" smooth="yes"/>
      <point x="407" y="763"/>
      <point x="427" y="747"/>
      <point x="441" y="737" type="curve" smooth="yes"/>
      <point x="455" y="727"/>
      <point x="467" y="714"/>
      <point x="469" y="696" type="curve" smooth="yes"/>
      <point x="471" y="678"/>
      <point x="485" y="649"/>
      <point x="489" y="642" type="curve" smooth="yes"/>
      <point x="492" y="636"/>
      <point x="499" y="625"/>
      <point x="499" y="612" type="curve" smooth="yes"/>
      <point x="499" y="608"/>
      <point x="499" y="605"/>
      <point x="498" y="601" type="curve" smooth="yes"/>
      <point x="493" y="582"/>
      <point x="492" y="562"/>
      <point x="492" y="548" type="curve" smooth="yes"/>
      <point x="492" y="534"/>
      <point x="502" y="514"/>
    </contour>
    <contour>
      <point x="140" y="153" type="curve" smooth="yes"/>
      <point x="232" y="153"/>
      <point x="277" y="243"/>
      <point x="277" y="331" type="curve" smooth="yes"/>
      <point x="277" y="416"/>
      <point x="236" y="489"/>
      <point x="158" y="489" type="curve"/>
      <point x="67" y="489"/>
      <point x="-2" y="414"/>
      <point x="-2" y="302" type="curve" smooth="yes"/>
      <point x="-2" y="219"/>
      <point x="39" y="153"/>
    </contour>
    <contour>
      <point x="309" y="482" type="curve" smooth="yes"/>
      <point x="328" y="482"/>
      <point x="340" y="496"/>
      <point x="340" y="525" type="curve"/>
      <point x="340" y="559"/>
      <point x="332" y="608"/>
      <point x="317" y="652" type="curve" smooth="yes"/>
      <point x="290" y="731"/>
      <point x="243" y="781"/>
      <point x="226" y="781" type="curve" smooth="yes"/>
      <point x="222" y="781"/>
      <point x="220" y="777"/>
      <point x="220" y="773" type="curve" smooth="yes"/>
      <point x="220" y="759"/>
      <point x="237" y="752"/>
      <point x="240" y="736" type="curve" smooth="yes"/>
      <point x="243" y="720"/>
      <point x="251" y="720"/>
      <point x="254" y="702" type="curve" smooth="yes"/>
      <point x="257" y="684"/>
      <point x="258" y="661"/>
      <point x="266" y="646" type="curve" smooth="yes"/>
      <point x="272" y="635"/>
      <point x="278" y="616"/>
      <point x="278" y="596" type="curve" smooth="yes"/>
      <point x="278" y="588"/>
      <point x="277" y="581"/>
      <point x="275" y="574" type="curve" smooth="yes"/>
      <point x="270" y="556"/>
      <point x="268" y="537"/>
      <point x="268" y="527" type="curve" smooth="yes"/>
      <point x="268" y="497"/>
      <point x="284" y="482"/>
    </contour>
    <contour>
      <point x="99" y="424" type="curve" smooth="yes"/>
      <point x="107" y="424"/>
      <point x="128" y="435"/>
      <point x="128" y="460" type="curve"/>
      <point x="128" y="532"/>
      <point x="102" y="569"/>
      <point x="84" y="606" type="curve" smooth="yes"/>
      <point x="66" y="644"/>
      <point x="-6" y="715"/>
      <point x="-30" y="715" type="curve" smooth="yes"/>
      <point x="-33" y="715"/>
      <point x="-35" y="713"/>
      <point x="-35" y="710" type="curve" smooth="yes"/>
      <point x="-35" y="704"/>
      <point x="-30" y="702"/>
      <point x="-21" y="695" type="curve" smooth="yes"/>
      <point x="-11" y="687"/>
      <point x="-3" y="664"/>
      <point x="9" y="652" type="curve" smooth="yes"/>
      <point x="21" y="640"/>
      <point x="35" y="633"/>
      <point x="36" y="621" type="curve" smooth="yes"/>
      <point x="37" y="609"/>
      <point x="45" y="580"/>
      <point x="56" y="565" type="curve" smooth="yes"/>
      <point x="59" y="561"/>
      <point x="60" y="556"/>
      <point x="60" y="550" type="curve" smooth="yes"/>
      <point x="60" y="537"/>
      <point x="53" y="521"/>
      <point x="52" y="507" type="curve" smooth="yes"/>
      <point x="51" y="487"/>
      <point x="53" y="451"/>
      <point x="65" y="437" type="curve" smooth="yes"/>
      <point x="77" y="423"/>
      <point x="91" y="424"/>
    </contour>
  </outline>
</glyph>
<glyph name="R" format="2">
  <advance width="1000"/>
  <unicode hex="0052"/>
  <outline>
    <contour>
      <point x="575" y="-157" type="curve" smooth="yes"/>
      <point x="904" y="-157"/>
      <point x="964" y="-8"/>
      <point x="964" y="3" type="curve" smooth="yes"/>
      <point x="964" y="7"/>
      <point x="962" y="10"/>
      <point x="959" y="10" type="curve"/>
      <point x="938" y="10"/>
      <point x="918" y="-26"/>
      <point x="841" y="-50" type="curve" smooth="yes"/>
      <point x="828" y="-54"/>
      <point x="817" y="-55"/>
      <point x="807" y="-55" type="curve" smooth="yes"/>
      <point x="783" y="-55"/>
      <point x="762" y="-51"/>
      <point x="730" y="-77" type="curve"/>
      <point x="710" y="-67"/>
      <point x="683" y="-59"/>
      <point x="657" y="-59" type="curve" smooth="yes"/>
      <point x="636" y="-59"/>
      <point x="604" y="-78"/>
      <point x="593" y="-78" type="curve" smooth="yes"/>
      <point x="561" y="-78"/>
      <point x="550" y="-50"/>
      <point x="505" y="-35" type="curve" smooth="yes"/>
      <point x="491" y="-30"/>
      <point x="479" y="-29"/>
      <point x="470" y="-29" type="curve" smooth="yes"/>
      <point x="461" y="-29"/>
      <point x="454" y="-30"/>
      <point x="448" y="-31" type="curve" smooth="yes"/>
      <point x="447" y="-31"/>
      <point x="446" y="-31"/>
      <point x="445" y="-31" type="curve" smooth="yes"/>
      <point x="440" y="-31"/>
      <point x="436" y="-29"/>
      <point x="434" y="-26" type="curve" smooth="yes"/>
      <point x="423" y="-14"/>
      <point x="403" y="17"/>
      <point x="357" y="36" type="curve"/>
      <point x="351" y="66"/>
      <point x="332" y="95"/>
      <point x="313" y="113" type="curve"/>
      <point x="316" y="150"/>
      <point x="300" y="209"/>
      <point x="290" y="213" type="curve"/>
      <point x="296" y="227"/>
      <point x="298" y="241"/>
      <point x="298" y="253" type="curve" smooth="yes"/>
      <point x="298" y="281"/>
      <point x="286" y="304"/>
      <point x="276" y="319" type="curve" smooth="yes"/>
      <point x="271" y="325"/>
      <point x="256" y="329"/>
      <point x="238" y="329" type="curve" smooth="yes"/>
      <point x="195" y="329"/>
      <point x="134" y="309"/>
      <point x="134" y="252" type="curve" smooth="yes"/>
      <point x="134" y="150"/>
      <point x="251" y="-157"/>
    </contour>
    <contour>
      <point x="894" y="209" type="curve" smooth="yes"/>
      <point x="908" y="209"/>
      <point x="915" y="249"/>
      <point x="915" y="308" type="curve" smooth="yes"/>
      <point x="915" y="463"/>
      <point x="757" y="606"/>
      <point x="561" y="606" type="curve" smooth="yes"/>
      <point x="325" y="606"/>
      <point x="229" y="443"/>
      <point x="156" y="443" type="curve"/>
      <point x="156" y="366" type="line"/>
      <point x="263" y="366" type="line"/>
      <point x="289" y="365"/>
      <point x="322" y="385"/>
      <point x="322" y="409" type="curve"/>
      <point x="329" y="411"/>
      <point x="340" y="419"/>
      <point x="350" y="430" type="curve" smooth="yes"/>
      <point x="368" y="450"/>
      <point x="378" y="470"/>
      <point x="404" y="489" type="curve" smooth="yes"/>
      <point x="416" y="498"/>
      <point x="433" y="500"/>
      <point x="451" y="500" type="curve" smooth="yes"/>
      <point x="465" y="500"/>
      <point x="480" y="499"/>
      <point x="495" y="499" type="curve" smooth="yes"/>
      <point x="550" y="499"/>
      <point x="570" y="524"/>
      <point x="588" y="524" type="curve" smooth="yes"/>
      <point x="604" y="524"/>
      <point x="651" y="487"/>
      <point x="729" y="487" type="curve" smooth="yes"/>
      <point x="741" y="487"/>
      <point x="751" y="488"/>
      <point x="754" y="487" type="curve" smooth="yes"/>
      <point x="759" y="485"/>
      <point x="779" y="458"/>
      <point x="792" y="443" type="curve" smooth="yes"/>
      <point x="807" y="425"/>
      <point x="830" y="406"/>
      <point x="840" y="401" type="curve" smooth="yes"/>
      <point x="850" y="396"/>
      <point x="849" y="376"/>
      <point x="854" y="356" type="curve" smooth="yes"/>
      <point x="859" y="336"/>
      <point x="875" y="318"/>
      <point x="879" y="312" type="curve" smooth="yes"/>
      <point x="883" y="306"/>
      <point x="882" y="293"/>
      <point x="882" y="276" type="curve" smooth="yes"/>
      <point x="882" y="254"/>
      <point x="894" y="242"/>
      <point x="894" y="232" type="curve" smooth="yes"/>
      <point x="894" y="222"/>
      <point x="890" y="220"/>
      <point x="890" y="216" type="curve" smooth="yes"/>
      <point x="890" y="212"/>
      <point x="891" y="209"/>
    </contour>
    <contour>
      <point x="245" y="-110" type="curve" smooth="yes"/>
      <point x="250" y="-110"/>
      <point x="252" y="-107"/>
      <point x="252" y="-103" type="curve" smooth="yes"/>
      <point x="252" y="-95"/>
      <point x="226" y="-85"/>
      <point x="222" y="-79" type="curve" smooth="yes"/>
      <point x="218" y="-73"/>
      <point x="202" y="-51"/>
      <point x="190" y="-40" type="curve" smooth="yes"/>
      <point x="178" y="-29"/>
      <point x="171" y="-22"/>
      <point x="168" y="-14" type="curve" smooth="yes"/>
      <point x="165" y="-6"/>
      <point x="158" y="13"/>
      <point x="147" y="24" type="curve" smooth="yes"/>
      <point x="140" y="31"/>
      <point x="125" y="46"/>
      <point x="125" y="75" type="curve" smooth="yes"/>
      <point x="125" y="104"/>
      <point x="111" y="145"/>
      <point x="82" y="176" type="curve" smooth="yes"/>
      <point x="70" y="188"/>
      <point x="50" y="194"/>
      <point x="43" y="194" type="curve" smooth="yes"/>
      <point x="36" y="194"/>
      <point x="12" y="189"/>
      <point x="12" y="171" type="curve" smooth="yes"/>
      <point x="12" y="147"/>
      <point x="36" y="81"/>
      <point x="109" y="-6" type="curve" smooth="yes"/>
      <point x="182" y="-93"/>
      <point x="241" y="-110"/>
    </contour>
    <contour>
      <point x="59" y="148" type="curve" smooth="yes"/>
      <point x="179" y="148"/>
      <point x="229" y="248"/>
      <point x="245" y="277" type="curve" smooth="yes"/>
      <point x="261" y="306"/>
      <point x="281" y="325"/>
      <point x="281" y="344" type="curve" smooth="yes"/>
      <point x="281" y="361"/>
      <point x="267" y="370"/>
      <point x="259" y="376" type="curve" smooth="yes"/>
      <point x="251" y="382"/>
      <point x="208" y="479"/>
      <point x="104" y="479" type="curve" smooth="yes"/>
      <point x="61" y="479"/>
      <point x="29" y="442"/>
      <point x="11" y="442" type="curve" smooth="yes"/>
      <point x="-10" y="442" type="line"/>
      <point x="-10" y="158" type="line"/>
      <point x="0" y="158" type="line" smooth="yes"/>
      <point x="12" y="158"/>
      <point x="30" y="148"/>
    </contour>
    <contour>
      <point x="21" y="436" type="curve"/>
      <point x="54" y="436" type="line"/>
      <point x="73" y="436"/>
      <point x="93" y="444"/>
      <point x="109" y="461" type="curve" smooth="yes"/>
      <point x="125" y="478"/>
      <point x="118" y="521"/>
      <point x="155" y="558" type="curve" smooth="yes"/>
      <point x="172" y="575"/>
      <point x="186" y="571"/>
      <point x="203" y="579" type="curve" smooth="yes"/>
      <point x="220" y="587"/>
      <point x="221" y="595"/>
      <point x="227" y="600" type="curve" smooth="yes"/>
      <point x="233" y="605"/>
      <point x="245" y="606"/>
      <point x="254" y="609" type="curve" smooth="yes"/>
      <point x="263" y="612"/>
      <point x="269" y="618"/>
      <point x="275" y="622" type="curve" smooth="yes"/>
      <point x="281" y="626"/>
      <point x="303" y="625"/>
      <point x="312" y="625" type="curve" smooth="yes"/>
      <point x="321" y="625"/>
      <point x="340" y="626"/>
      <point x="340" y="634" type="curve"/>
      <point x="340" y="643"/>
      <point x="300" y="644"/>
      <point x="287" y="644" type="curve" smooth="yes"/>
      <point x="274" y="644"/>
      <point x="266" y="647"/>
      <point x="255" y="647" type="curve" smooth="yes"/>
      <point x="244" y="647"/>
      <point x="231" y="637"/>
      <point x="223" y="637" type="curve" smooth="yes"/>
      <point x="215" y="637"/>
      <point x="208" y="637"/>
      <point x="197" y="633" type="curve" smooth="yes"/>
      <point x="186" y="629"/>
      <point x="170" y="617"/>
      <point x="160" y="608" type="curve" smooth="yes"/>
      <point x="150" y="599"/>
      <point x="118" y="592"/>
      <point x="99" y="574" type="curve" smooth="yes"/>
      <point x="54" y="533"/>
      <point x="21" y="470"/>
    </contour>
  </outline>
</glyph>
<glyph name="S" format="2">
  <advance width="1000"/>
  <unicode hex="0053"/>
  <outline>
    <contour>
      <point x="501" y="-24" type="curve" smooth="yes"/>
      <point x="743" y="-24"/>
      <point x="840" y="158"/>
      <point x="1000" y="158" type="curve"/>
      <point x="1010" y="158" type="line"/>
      <point x="1010" y="442" type="line"/>
      <point x="1000" y="442" type="line"/>
      <point x="636" y="442"/>
      <point x="646" y="161"/>
      <point x="443" y="161" type="curve" smooth="yes"/>
      <point x="342" y="161"/>
      <point x="276" y="243"/>
      <point x="276" y="349" type="curve" smooth="yes"/>
      <point x="276" y="422"/>
      <point x="320" y="517"/>
      <point x="410" y="517" type="curve" smooth="yes"/>
      <point x="468" y="517"/>
      <point x="530" y="457"/>
      <point x="530" y="384" type="curve" smooth="yes"/>
      <point x="530" y="337"/>
      <point x="501" y="317"/>
      <point x="474" y="317" type="curve" smooth="yes"/>
      <point x="428" y="317"/>
      <point x="429" y="355"/>
      <point x="411" y="355" type="curve" smooth="yes"/>
      <point x="405" y="355"/>
      <point x="401" y="349"/>
      <point x="401" y="343" type="curve" smooth="yes"/>
      <point x="401" y="326"/>
      <point x="428" y="275"/>
      <point x="489" y="275" type="curve" smooth="yes"/>
      <point x="559" y="275"/>
      <point x="619" y="333"/>
      <point x="619" y="440" type="curve" smooth="yes"/>
      <point x="619" y="552"/>
      <point x="509" y="642"/>
      <point x="394" y="642" type="curve" smooth="yes"/>
      <point x="200" y="642"/>
      <point x="112" y="482"/>
      <point x="112" y="338" type="curve" smooth="yes"/>
      <point x="112" y="154"/>
      <point x="253" y="-24"/>
    </contour>
  </outline>
</glyph>
<glyph name="T" format="2">
  <advance width="1000"/>
  <unicode hex="0054"/>
  <outline>
    <contour>
      <point x="461" y="37" type="curve" smooth="yes"/>
      <point x="507" y="37"/>
      <point x="627" y="75"/>
      <point x="692" y="75" type="curve" smooth="yes"/>
      <point x="735" y="75"/>
      <point x="790" y="110"/>
      <point x="827" y="134" type="curve" smooth="yes"/>
      <point x="855" y="152"/>
      <point x="870" y="158"/>
      <point x="882" y="158" type="curve" smooth="yes"/>
      <point x="897" y="158"/>
      <point x="909" y="149"/>
      <point x="938" y="149" type="curve" smooth="yes"/>
      <point x="964" y="149"/>
      <point x="987" y="158"/>
      <point x="1000" y="158" type="curve" smooth="yes"/>
      <point x="1010" y="158" type="line"/>
      <point x="1010" y="442" type="line"/>
      <point x="1000" y="442" type="line" smooth="yes"/>
      <point x="906" y="442"/>
      <point x="786" y="624"/>
      <point x="723" y="624" type="curve" smooth="yes"/>
      <point x="694" y="624"/>
      <point x="679" y="613"/>
      <point x="666" y="613" type="curve" smooth="yes"/>
      <point x="653" y="613"/>
      <point x="637" y="637"/>
      <point x="599" y="637" type="curve" smooth="yes"/>
      <point x="527" y="637"/>
      <point x="490" y="551"/>
      <point x="370" y="551" type="curve" smooth="yes"/>
      <point x="300" y="551"/>
      <point x="275" y="578"/>
      <point x="221" y="578" type="curve" smooth="yes"/>
      <point x="139" y="578"/>
      <point x="77" y="442"/>
      <point x="0" y="442" type="curve" smooth="yes"/>
      <point x="-10" y="442" type="line"/>
      <point x="-10" y="158" type="line"/>
      <point x="0" y="158" type="line" smooth="yes"/>
      <point x="158" y="158"/>
      <point x="198" y="96"/>
      <point x="256" y="96" type="curve" smooth="yes"/>
      <point x="342" y="96"/>
      <point x="415" y="37"/>
    </contour>
    <contour>
      <point x="933" y="-210" type="curve" smooth="yes"/>
      <point x="955" y="-210"/>
      <point x="962" y="-192"/>
      <point x="962" y="-173" type="curve" smooth="yes"/>
      <point x="962" y="-151"/>
      <point x="941" y="-146"/>
      <point x="914" y="-146" type="curve" smooth="yes"/>
      <point x="898" y="-146"/>
      <point x="875" y="-123"/>
      <point x="865" y="-118" type="curve" smooth="yes"/>
      <point x="855" y="-113"/>
      <point x="810" y="-99"/>
      <point x="802" y="-91" type="curve" smooth="yes"/>
      <point x="794" y="-83"/>
      <point x="778" y="-55"/>
      <point x="778" y="-44" type="curve" smooth="yes"/>
      <point x="778" y="-28"/>
      <point x="811" y="99"/>
      <point x="811" y="127" type="curve"/>
      <point x="811" y="178" type="line"/>
      <point x="602" y="178" type="line"/>
      <point x="602" y="69"/>
      <point x="620" y="40"/>
      <point x="620" y="-57" type="curve" smooth="yes"/>
      <point x="620" y="-106"/>
      <point x="603" y="-131"/>
      <point x="603" y="-162" type="curve" smooth="yes"/>
      <point x="603" y="-195"/>
      <point x="623" y="-210"/>
      <point x="652" y="-210" type="curve" smooth="yes"/>
      <point x="689" y="-210"/>
      <point x="731" y="-199"/>
      <point x="755" y="-199" type="curve" smooth="yes"/>
      <point x="779" y="-199"/>
      <point x="812" y="-210"/>
      <point x="844" y="-210" type="curve" smooth="yes"/>
      <point x="881" y="-210"/>
      <point x="884" y="-200"/>
      <point x="890" y="-200" type="curve" smooth="yes"/>
      <point x="898" y="-200"/>
      <point x="911" y="-210"/>
    </contour>
    <contour>
      <point x="393" y="-210" type="curve" smooth="yes"/>
      <point x="415" y="-210"/>
      <point x="422" y="-192"/>
      <point x="422" y="-173" type="curve" smooth="yes"/>
      <point x="422" y="-151"/>
      <point x="401" y="-146"/>
      <point x="374" y="-146" type="curve" smooth="yes"/>
      <point x="358" y="-146"/>
      <point x="335" y="-123"/>
      <point x="325" y="-118" type="curve" smooth="yes"/>
      <point x="315" y="-113"/>
      <point x="270" y="-99"/>
      <point x="262" y="-91" type="curve" smooth="yes"/>
      <point x="254" y="-83"/>
      <point x="238" y="-55"/>
      <point x="238" y="-44" type="curve" smooth="yes"/>
      <point x="238" y="-28"/>
      <point x="271" y="99"/>
      <point x="271" y="127" type="curve"/>
      <point x="271" y="178" type="line"/>
      <point x="62" y="178" type="line"/>
      <point x="62" y="69"/>
      <point x="80" y="40"/>
      <point x="80" y="-57" type="curve" smooth="yes"/>
      <point x="80" y="-106"/>
      <point x="63" y="-131"/>
      <point x="63" y="-162" type="curve" smooth="yes"/>
      <point x="63" y="-193"/>
      <point x="81" y="-209"/>
      <point x="108" y="-210" type="curve" smooth="yes"/>
      <point x="145" y="-209"/>
      <point x="190" y="-199"/>
      <point x="215" y="-199" type="curve" smooth="yes"/>
      <point x="239" y="-199"/>
      <point x="272" y="-210"/>
      <point x="304" y="-210" type="curve" smooth="yes"/>
      <point x="341" y="-210"/>
      <point x="344" y="-200"/>
      <point x="350" y="-200" type="curve" smooth="yes"/>
      <point x="358" y="-200"/>
      <point x="371" y="-210"/>
    </contour>
  </outline>
</glyph>
<glyph name="U" format="2">
  <advance width="1000"/>
  <unicode hex="0055"/>
  <outline>
    <contour>
      <point x="327" y="-189" type="curve" smooth="yes"/>
      <point x="706" y="-189"/>
      <point x="919" y="81"/>
      <point x="919" y="133" type="curve" smooth="yes"/>
      <point x="919" y="137"/>
      <point x="918" y="139"/>
      <point x="916" y="139" type="curve"/>
      <point x="913" y="139"/>
      <point x="900" y="124"/>
      <point x="874" y="124" type="curve" smooth="yes"/>
      <point x="851" y="124"/>
      <point x="782" y="159"/>
      <point x="782" y="202" type="curve" smooth="yes"/>
      <point x="782" y="215"/>
      <point x="796" y="219"/>
      <point x="804" y="219" type="curve" smooth="yes"/>
      <point x="836" y="219"/>
      <point x="900" y="158"/>
      <point x="999" y="158" type="curve"/>
      <point x="1010" y="158" type="line"/>
      <point x="1010" y="442" type="line"/>
      <point x="1000" y="442" type="line"/>
      <point x="960" y="442"/>
      <point x="909" y="473"/>
      <point x="821" y="481" type="curve" smooth="yes"/>
      <point x="806" y="482"/>
      <point x="790" y="483"/>
      <point x="773" y="483" type="curve" smooth="yes"/>
      <point x="746" y="483"/>
      <point x="721" y="481"/>
      <point x="696" y="478" type="curve" smooth="yes"/>
      <point x="536" y="458"/>
      <point x="437" y="412"/>
      <point x="283" y="412" type="curve" smooth="yes"/>
      <point x="156" y="412"/>
      <point x="94" y="442"/>
      <point x="10" y="442" type="curve"/>
      <point x="-10" y="442" type="line"/>
      <point x="-10" y="158" type="line"/>
      <point x="10" y="158" type="line"/>
      <point x="62" y="158"/>
      <point x="164" y="120"/>
      <point x="283" y="120" type="curve" smooth="yes"/>
      <point x="428" y="120"/>
      <point x="531" y="188"/>
      <point x="656" y="188" type="curve" smooth="yes"/>
      <point x="688" y="188"/>
      <point x="712" y="169"/>
      <point x="712" y="157" type="curve" smooth="yes"/>
      <point x="712" y="140"/>
      <point x="660" y="102"/>
      <point x="593" y="102" type="curve" smooth="yes"/>
      <point x="566" y="102"/>
      <point x="551" y="111"/>
      <point x="544" y="111" type="curve" smooth="yes"/>
      <point x="541" y="111"/>
      <point x="539" y="109"/>
      <point x="539" y="105" type="curve" smooth="yes"/>
      <point x="539" y="101"/>
      <point x="545" y="96"/>
      <point x="545" y="90" type="curve" smooth="yes"/>
      <point x="545" y="81"/>
      <point x="507" y="49"/>
      <point x="433" y="49" type="curve" smooth="yes"/>
      <point x="395" y="49"/>
      <point x="366" y="59"/>
      <point x="347" y="59" type="curve" smooth="yes"/>
      <point x="328" y="59"/>
      <point x="329" y="54"/>
      <point x="329" y="52" type="curve" smooth="yes"/>
      <point x="329" y="50"/>
      <point x="352" y="34"/>
      <point x="352" y="15" type="curve" smooth="yes"/>
      <point x="352" y="0"/>
      <point x="311" y="-23"/>
      <point x="268" y="-23" type="curve" smooth="yes"/>
      <point x="213" y="-23"/>
      <point x="203" y="-20"/>
      <point x="189" y="-20" type="curve" smooth="yes"/>
      <point x="177" y="-20"/>
      <point x="174" y="-22"/>
      <point x="174" y="-26" type="curve" smooth="yes"/>
      <point x="174" y="-31"/>
      <point x="201" y="-42"/>
      <point x="201" y="-64" type="curve" smooth="yes"/>
      <point x="201" y="-93"/>
      <point x="139" y="-114"/>
      <point x="94" y="-114" type="curve" smooth="yes"/>
      <point x="49" y="-114"/>
      <point x="35" y="-107"/>
      <point x="28" y="-107" type="curve" smooth="yes"/>
      <point x="24" y="-107"/>
      <point x="22" y="-110"/>
      <point x="22" y="-112" type="curve" smooth="yes"/>
      <point x="22" y="-114"/>
      <point x="116" y="-189"/>
    </contour>
    <contour>
      <point x="696" y="478" type="curve"/>
      <point x="696" y="331" type="line"/>
      <point x="821" y="431" type="line"/>
      <point x="821" y="481" type="line"/>
      <point x="806" y="482"/>
      <point x="788" y="498"/>
      <point x="788" y="528" type="curve"/>
      <point x="788" y="546"/>
      <point x="804" y="557"/>
      <point x="818" y="557" type="curve" smooth="yes"/>
      <point x="832" y="557"/>
      <point x="882" y="537"/>
      <point x="894" y="537" type="curve" smooth="yes"/>
      <point x="898" y="537"/>
      <point x="901" y="538"/>
      <point x="901" y="542" type="curve"/>
      <point x="901" y="544"/>
      <point x="899" y="547"/>
      <point x="897" y="549" type="curve" smooth="yes"/>
      <point x="760" y="686"/>
      <point x="509" y="764"/>
      <point x="289" y="764" type="curve" smooth="yes"/>
      <point x="205" y="764"/>
      <point x="126" y="754"/>
      <point x="59" y="729" type="curve" smooth="yes"/>
      <point x="54" y="727"/>
      <point x="54" y="725"/>
      <point x="54" y="723" type="curve" smooth="yes"/>
      <point x="54" y="721"/>
      <point x="57" y="719"/>
      <point x="61" y="719" type="curve" smooth="yes"/>
      <point x="148" y="719"/>
      <point x="206" y="699"/>
      <point x="206" y="682" type="curve" smooth="yes"/>
      <point x="206" y="665"/>
      <point x="194" y="657"/>
      <point x="183" y="649" type="curve" smooth="yes"/>
      <point x="179" y="646"/>
      <point x="177" y="643"/>
      <point x="177" y="641" type="curve" smooth="yes"/>
      <point x="177" y="638"/>
      <point x="180" y="637"/>
      <point x="184" y="637" type="curve" smooth="yes"/>
      <point x="203" y="637"/>
      <point x="231" y="643"/>
      <point x="255" y="643" type="curve" smooth="yes"/>
      <point x="278" y="643"/>
      <point x="297" y="637"/>
      <point x="297" y="613" type="curve" smooth="yes"/>
      <point x="297" y="602"/>
      <point x="287" y="588"/>
      <point x="271" y="571" type="curve" smooth="yes"/>
      <point x="263" y="563"/>
      <point x="260" y="557"/>
      <point x="260" y="554" type="curve" smooth="yes"/>
      <point x="260" y="551"/>
      <point x="264" y="550"/>
      <point x="270" y="551" type="curve" smooth="yes"/>
      <point x="282" y="553"/>
      <point x="339" y="564"/>
      <point x="389" y="564" type="curve" smooth="yes"/>
      <point x="412" y="564"/>
      <point x="443" y="551"/>
      <point x="443" y="533" type="curve" smooth="yes"/>
      <point x="443" y="523"/>
      <point x="435" y="516"/>
      <point x="429" y="512" type="curve" smooth="yes"/>
      <point x="426" y="510"/>
      <point x="422" y="506"/>
      <point x="422" y="503" type="curve" smooth="yes"/>
      <point x="422" y="500"/>
      <point x="424" y="498"/>
      <point x="432" y="498" type="curve" smooth="yes"/>
      <point x="490" y="498"/>
      <point x="617" y="542"/>
      <point x="664" y="542" type="curve" smooth="yes"/>
      <point x="711" y="542"/>
      <point x="737" y="525"/>
      <point x="737" y="507" type="curve" smooth="yes"/>
      <point x="737" y="487"/>
      <point x="722" y="482"/>
    </contour>
  </outline>
</glyph>
<glyph name="V" format="2">
  <advance width="1000"/>
  <unicode hex="0056"/>
  <outline>
    <contour>
      <point x="307" y="-97" type="curve" smooth="yes"/>
      <point x="401" y="-97"/>
      <point x="414" y="-65"/>
      <point x="435" y="-38" type="curve" smooth="yes"/>
      <point x="443" y="-28"/>
      <point x="467" y="-22"/>
      <point x="478" y="-16" type="curve" smooth="yes"/>
      <point x="485" y="-12"/>
      <point x="488" y="-7"/>
      <point x="488" y="0" type="curve" smooth="yes"/>
      <point x="488" y="5"/>
      <point x="487" y="11"/>
      <point x="484" y="18" type="curve"/>
      <point x="487" y="17"/>
      <point x="489" y="16"/>
      <point x="493" y="16" type="curve" smooth="yes"/>
      <point x="497" y="16"/>
      <point x="503" y="18"/>
      <point x="512" y="27" type="curve" smooth="yes"/>
      <point x="519" y="34"/>
      <point x="520" y="50"/>
      <point x="520" y="66" type="curve" smooth="yes"/>
      <point x="520" y="74"/>
      <point x="520" y="81"/>
      <point x="520" y="88" type="curve" smooth="yes"/>
      <point x="520" y="98"/>
      <point x="520" y="106"/>
      <point x="524" y="107" type="curve" smooth="yes"/>
      <point x="534" y="111"/>
      <point x="550" y="100"/>
      <point x="568" y="100" type="curve" smooth="yes"/>
      <point x="586" y="100"/>
      <point x="608" y="111"/>
      <point x="608" y="144" type="curve" smooth="yes"/>
      <point x="608" y="188"/>
      <point x="598" y="308"/>
      <point x="598" y="372" type="curve" smooth="yes"/>
      <point x="598" y="412"/>
      <point x="604" y="427"/>
      <point x="608" y="459" type="curve"/>
      <point x="618" y="448"/>
      <point x="628" y="440"/>
      <point x="636" y="440" type="curve" smooth="yes"/>
      <point x="643" y="440"/>
      <point x="657" y="445"/>
      <point x="657" y="457" type="curve" smooth="yes"/>
      <point x="657" y="504"/>
      <point x="630" y="600"/>
      <point x="593" y="648" type="curve" smooth="yes"/>
      <point x="521" y="741"/>
      <point x="446" y="779"/>
      <point x="340" y="779" type="curve" smooth="yes"/>
      <point x="2" y="779"/>
      <point x="52" y="442"/>
      <point x="10" y="442" type="curve" smooth="yes"/>
      <point x="0" y="442" type="line"/>
      <point x="-10" y="442" type="line"/>
      <point x="-10" y="158" type="line"/>
      <point x="0" y="158" type="line"/>
      <point x="30" y="158"/>
      <point x="86" y="110"/>
      <point x="132" y="37" type="curve" smooth="yes"/>
      <point x="178" y="-36"/>
      <point x="238" y="-97"/>
    </contour>
    <contour>
      <point x="398" y="351" type="curve"/>
      <point x="421" y="356"/>
      <point x="437" y="380"/>
      <point x="437" y="404" type="curve" smooth="yes"/>
      <point x="437" y="422"/>
      <point x="429" y="440"/>
      <point x="409" y="453" type="curve"/>
      <point x="443" y="449"/>
      <point x="478" y="418"/>
      <point x="498" y="387" type="curve"/>
      <point x="469" y="364"/>
      <point x="440" y="346"/>
    </contour>
    <contour>
      <point x="373" y="353" type="curve"/>
      <point x="342" y="360"/>
      <point x="313" y="384"/>
      <point x="304" y="392" type="curve" smooth="yes"/>
      <point x="295" y="400"/>
      <point x="286" y="407"/>
      <point x="275" y="409" type="curve"/>
      <point x="300" y="437"/>
      <point x="336" y="453"/>
      <point x="362" y="454" type="curve"/>
      <point x="346" y="441"/>
      <point x="339" y="423"/>
      <point x="339" y="406" type="curve" smooth="yes"/>
      <point x="339" y="384"/>
      <point x="351" y="363"/>
    </contour>
  </outline>
</glyph>
<glyph name="W" format="2">
  <advance width="1000"/>
  <unicode hex="0057"/>
  <outline>
    <contour>
      <point x="376" y="138" type="curve" smooth="yes"/>
      <point x="569" y="138"/>
      <point x="686" y="231"/>
      <point x="794" y="231" type="curve" smooth="yes"/>
      <point x="868" y="231"/>
      <point x="933" y="158"/>
      <point x="990" y="158" type="curve"/>
      <point x="1010" y="158" type="line"/>
      <point x="1010" y="442" type="line"/>
      <point x="990" y="442" type="line"/>
      <point x="961" y="442"/>
      <point x="905" y="477"/>
      <point x="846" y="477" type="curve" smooth="yes"/>
      <point x="655" y="477"/>
      <point x="524" y="289"/>
      <point x="247" y="289" type="curve" smooth="yes"/>
      <point x="171" y="289"/>
      <point x="102" y="320"/>
      <point x="71" y="320" type="curve" smooth="yes"/>
      <point x="60" y="320"/>
      <point x="54" y="316"/>
      <point x="54" y="306" type="curve" smooth="yes"/>
      <point x="54" y="268"/>
      <point x="206" y="138"/>
    </contour>
  </outline>
</glyph>
<glyph name="Y" format="2">
  <advance width="1000"/>
  <unicode hex="0059"/>
  <outline>
    <contour>
      <point x="654" y="-47" type="curve" smooth="yes"/>
      <point x="853" y="-47"/>
      <point x="858" y="158"/>
      <point x="990" y="158" type="curve" smooth="yes"/>
      <point x="1010" y="158" type="line"/>
      <point x="1010" y="442" type="line"/>
      <point x="990" y="442" type="line" smooth="yes"/>
      <point x="806" y="442"/>
      <point x="765" y="269"/>
      <point x="664" y="269" type="curve" smooth="yes"/>
      <point x="549" y="269"/>
      <point x="523" y="548"/>
      <point x="271" y="548" type="curve" smooth="yes"/>
      <point x="130" y="548"/>
      <point x="91" y="442"/>
      <point x="10" y="442" type="curve" smooth="yes"/>
      <point x="-10" y="442" type="line"/>
      <point x="-10" y="158" type="line"/>
      <point x="10" y="158" type="line" smooth="yes"/>
      <point x="133" y="158"/>
      <point x="178" y="255"/>
      <point x="259" y="255" type="curve" smooth="yes"/>
      <point x="423" y="255"/>
      <point x="387" y="-47"/>
    </contour>
  </outline>
</glyph>
<glyph name="Z" format="2">
  <advance width="1000"/>
  <unicode hex="005A"/>
  <outline>
    <contour>
      <point x="208" y="87" type="curve" smooth="yes"/>
      <point x="341" y="87"/>
      <point x="574" y="172"/>
      <point x="612" y="194" type="curve" smooth="yes"/>
      <point x="650" y="216"/>
      <point x="658" y="240"/>
      <point x="658" y="302" type="curve" smooth="yes"/>
      <point x="658" y="325"/>
      <point x="637" y="348"/>
      <point x="601" y="364" type="curve" smooth="yes"/>
      <point x="453" y="431"/>
      <point x="279" y="489"/>
      <point x="194" y="489" type="curve" smooth="yes"/>
      <point x="141" y="489"/>
      <point x="116" y="474"/>
      <point x="90" y="465" type="curve" smooth="yes"/>
      <point x="64" y="456"/>
      <point x="22" y="442"/>
      <point x="1" y="442" type="curve"/>
      <point x="-10" y="442" type="line"/>
      <point x="-10" y="158" type="line"/>
      <point x="1" y="158" type="line"/>
      <point x="22" y="158"/>
      <point x="40" y="127"/>
      <point x="83" y="106" type="curve" smooth="yes"/>
      <point x="102" y="97"/>
      <point x="157" y="87"/>
    </contour>
    <contour>
      <point x="877" y="83" type="curve" smooth="yes"/>
      <point x="879" y="83"/>
      <point x="880" y="85"/>
      <point x="880" y="91" type="curve" smooth="yes"/>
      <point x="880" y="108"/>
      <point x="863" y="151"/>
      <point x="849" y="166" type="curve"/>
      <point x="859" y="162"/>
      <point x="872" y="160"/>
      <point x="885" y="160" type="curve" smooth="yes"/>
      <point x="904" y="160"/>
      <point x="921" y="163"/>
      <point x="930" y="168" type="curve" smooth="yes"/>
      <point x="934" y="171"/>
      <point x="938" y="174"/>
      <point x="938" y="176" type="curve" smooth="yes"/>
      <point x="938" y="178"/>
      <point x="934" y="180"/>
      <point x="926" y="180" type="curve" smooth="yes"/>
      <point x="909" y="180"/>
      <point x="852" y="184"/>
      <point x="787" y="228" type="curve" smooth="yes"/>
      <point x="722" y="272"/>
      <point x="668" y="274"/>
      <point x="608" y="274" type="curve"/>
      <point x="606" y="224" type="line"/>
      <point x="622" y="230"/>
      <point x="650" y="233"/>
      <point x="667" y="233" type="curve" smooth="yes"/>
      <point x="696" y="233"/>
      <point x="725" y="225"/>
      <point x="752" y="208" type="curve" smooth="yes"/>
      <point x="792" y="183"/>
      <point x="820" y="160"/>
      <point x="835" y="139" type="curve" smooth="yes"/>
      <point x="846" y="124"/>
      <point x="868" y="83"/>
    </contour>
    <contour>
      <point x="218" y="267" type="curve"/>
      <point x="227" y="292"/>
      <point x="232" y="312"/>
      <point x="232" y="333" type="curve" smooth="yes"/>
      <point x="232" y="355"/>
      <point x="226" y="377"/>
      <point x="214" y="407" type="curve"/>
      <point x="259" y="407"/>
      <point x="324" y="364"/>
      <point x="324" y="335" type="curve" smooth="yes"/>
      <point x="324" y="311"/>
      <point x="259" y="267"/>
    </contour>
    <contour>
      <point x="192" y="267" type="curve"/>
      <point x="151" y="267"/>
      <point x="86" y="311"/>
      <point x="86" y="335" type="curve" smooth="yes"/>
      <point x="86" y="364"/>
      <point x="151" y="407"/>
      <point x="196" y="407" type="curve"/>
      <point x="184" y="377"/>
      <point x="178" y="355"/>
      <point x="178" y="333" type="curve" smooth="yes"/>
      <point x="178" y="312"/>
      <point x="183" y="292"/>
    </contour>
  </outline>
</glyph>
<glyph name="bracketleft" format="2">
  <advance width="1000"/>
  <unicode hex="005B"/>
  <outline>
    <contour>
      <point x="754" y="576" type="curve" smooth="yes"/>
      <point x="754" y="627"/>
      <point x="656" y="660"/>
      <point x="499" y="660" type="curve" smooth="yes"/>
      <point x="345" y="660"/>
      <point x="246" y="627"/>
      <point x="246" y="576" type="curve" smooth="yes"/>
      <point x="246" y="525"/>
      <point x="345" y="492"/>
      <point x="499" y="492" type="curve" smooth="yes"/>
      <point x="655" y="492"/>
      <point x="754" y="525"/>
    </contour>
    <contour>
      <point x="855" y="584" type="curve" smooth="yes"/>
      <point x="855" y="513"/>
      <point x="717" y="467"/>
      <point x="500" y="467" type="curve" smooth="yes"/>
      <point x="284" y="467"/>
      <point x="145" y="512"/>
      <point x="145" y="584" type="curve" smooth="yes"/>
      <point x="145" y="655"/>
      <point x="284" y="702"/>
      <point x="500" y="702" type="curve" smooth="yes"/>
      <point x="717" y="702"/>
      <point x="855" y="655"/>
    </contour>
    <contour>
      <point x="926" y="602" type="curve" smooth="yes"/>
      <point x="926" y="717"/>
      <point x="759" y="791"/>
      <point x="499" y="790" type="curve" smooth="yes"/>
      <point x="241" y="789"/>
      <point x="74" y="717"/>
      <point x="74" y="602" type="curve" smooth="yes"/>
      <point x="74" y="488"/>
      <point x="241" y="415"/>
      <point x="499" y="414" type="curve" smooth="yes"/>
      <point x="759" y="413"/>
      <point x="926" y="487"/>
    </contour>
    <contour>
      <point x="642" y="590" type="curve"/>
      <point x="358" y="590" type="line"/>
      <point x="358" y="342"/>
      <point x="636" y="158"/>
      <point x="990" y="158" type="curve" smooth="yes"/>
      <point x="1010" y="158" type="line"/>
      <point x="1010" y="442" type="line"/>
      <point x="990" y="442" type="line" smooth="yes"/>
      <point x="795" y="442"/>
      <point x="642" y="502"/>
    </contour>
  </outline>
</glyph>
<glyph name="c" format="2">
  <advance width="1000"/>
  <unicode hex="0063"/>
  <outline>
    <contour>
      <point x="346" y="647" type="curve" smooth="yes"/>
      <point x="147" y="647"/>
      <point x="142" y="442"/>
      <point x="10" y="442" type="curve" smooth="yes"/>
      <point x="-10" y="442" type="line"/>
      <point x="-10" y="158" type="line"/>
      <point x="10" y="158" type="line" smooth="yes"/>
      <point x="194" y="158"/>
      <point x="235" y="331"/>
      <point x="336" y="331" type="curve" smooth="yes"/>
      <point x="451" y="331"/>
      <point x="477" y="52"/>
      <point x="729" y="52" type="curve" smooth="yes"/>
      <point x="870" y="52"/>
      <point x="909" y="158"/>
      <point x="990" y="158" type="curve" smooth="yes"/>
      <point x="1010" y="158" type="line"/>
      <point x="1010" y="442" type="line"/>
      <point x="990" y="442" type="line" smooth="yes"/>
      <point x="867" y="442"/>
      <point x="822" y="345"/>
      <point x="741" y="345" type="curve" smooth="yes"/>
      <point x="577" y="345"/>
      <point x="613" y="647"/>
    </contour>
  </outline>
</glyph>
